<svg xmlns="http://www.w3.org/2000/svg" xmlns:xlink="http://www.w3.org/1999/xlink" width="450" height="932" viewBox="0 0 450 932">
  <defs>
    <clipPath id="clip-path">
      <rect width="450" height="932" fill="none"/>
    </clipPath>
  </defs>
  <g id="背景" clip-path="url(#clip-path)">
    <g transform="translate(10 -239)">
      <rect id="長方形_51" data-name="長方形 51" width="30" height="30" transform="translate(-10 239)" fill="#f3f3f8"/>
      <rect id="長方形_51-2" data-name="長方形 51" width="30" height="30" transform="translate(50 239)" fill="#f3f3f8"/>
      <rect id="長方形_51-3" data-name="長方形 51" width="30" height="30" transform="translate(110 239)" fill="#f3f3f8"/>
      <rect id="長方形_51-4" data-name="長方形 51" width="30" height="30" transform="translate(170 239)" fill="#f3f3f8"/>
      <rect id="長方形_51-5" data-name="長方形 51" width="30" height="30" transform="translate(230 239)" fill="#f3f3f8"/>
      <rect id="長方形_51-6" data-name="長方形 51" width="30" height="30" transform="translate(290 239)" fill="#f3f3f8"/>
      <rect id="長方形_51-7" data-name="長方形 51" width="30" height="30" transform="translate(350 239)" fill="#f3f3f8"/>
      <rect id="長方形_51-8" data-name="長方形 51" width="30" height="30" transform="translate(410 239)" fill="#f3f3f8"/>
      <rect id="長方形_53" data-name="長方形 53" width="30" height="30" transform="translate(20 269)" fill="#f3f3f8"/>
      <rect id="長方形_54" data-name="長方形 54" width="30" height="30" transform="translate(80 269)" fill="#f3f3f8"/>
      <rect id="長方形_55" data-name="長方形 55" width="30" height="30" transform="translate(140 269)" fill="#f3f3f8"/>
      <rect id="長方形_56" data-name="長方形 56" width="30" height="30" transform="translate(200 269)" fill="#f3f3f8"/>
      <rect id="長方形_57" data-name="長方形 57" width="30" height="30" transform="translate(260 269)" fill="#f3f3f8"/>
      <rect id="長方形_58" data-name="長方形 58" width="30" height="30" transform="translate(320 269)" fill="#f3f3f8"/>
      <rect id="長方形_59" data-name="長方形 59" width="30" height="30" transform="translate(380 269)" fill="#f3f3f8"/>
    </g>
    <g transform="translate(10 -179)">
      <rect id="長方形_51-9" data-name="長方形 51" width="30" height="30" transform="translate(-10 239)" fill="#f3f3f8"/>
      <rect id="長方形_51-10" data-name="長方形 51" width="30" height="30" transform="translate(50 239)" fill="#f3f3f8"/>
      <rect id="長方形_51-11" data-name="長方形 51" width="30" height="30" transform="translate(110 239)" fill="#f3f3f8"/>
      <rect id="長方形_51-12" data-name="長方形 51" width="30" height="30" transform="translate(170 239)" fill="#f3f3f8"/>
      <rect id="長方形_51-13" data-name="長方形 51" width="30" height="30" transform="translate(230 239)" fill="#f3f3f8"/>
      <rect id="長方形_51-14" data-name="長方形 51" width="30" height="30" transform="translate(290 239)" fill="#f3f3f8"/>
      <rect id="長方形_51-15" data-name="長方形 51" width="30" height="30" transform="translate(350 239)" fill="#f3f3f8"/>
      <rect id="長方形_51-16" data-name="長方形 51" width="30" height="30" transform="translate(410 239)" fill="#f3f3f8"/>
      <rect id="長方形_53-2" data-name="長方形 53" width="30" height="30" transform="translate(20 269)" fill="#f3f3f8"/>
      <rect id="長方形_54-2" data-name="長方形 54" width="30" height="30" transform="translate(80 269)" fill="#f3f3f8"/>
      <rect id="長方形_55-2" data-name="長方形 55" width="30" height="30" transform="translate(140 269)" fill="#f3f3f8"/>
      <rect id="長方形_56-2" data-name="長方形 56" width="30" height="30" transform="translate(200 269)" fill="#f3f3f8"/>
      <rect id="長方形_57-2" data-name="長方形 57" width="30" height="30" transform="translate(260 269)" fill="#f3f3f8"/>
      <rect id="長方形_58-2" data-name="長方形 58" width="30" height="30" transform="translate(320 269)" fill="#f3f3f8"/>
      <rect id="長方形_59-2" data-name="長方形 59" width="30" height="30" transform="translate(380 269)" fill="#f3f3f8"/>
    </g>
    <g transform="translate(10 -119)">
      <rect id="長方形_51-17" data-name="長方形 51" width="30" height="30" transform="translate(-10 239)" fill="#f3f3f8"/>
      <rect id="長方形_51-18" data-name="長方形 51" width="30" height="30" transform="translate(50 239)" fill="#f3f3f8"/>
      <rect id="長方形_51-19" data-name="長方形 51" width="30" height="30" transform="translate(110 239)" fill="#f3f3f8"/>
      <rect id="長方形_51-20" data-name="長方形 51" width="30" height="30" transform="translate(170 239)" fill="#f3f3f8"/>
      <rect id="長方形_51-21" data-name="長方形 51" width="30" height="30" transform="translate(230 239)" fill="#f3f3f8"/>
      <rect id="長方形_51-22" data-name="長方形 51" width="30" height="30" transform="translate(290 239)" fill="#f3f3f8"/>
      <rect id="長方形_51-23" data-name="長方形 51" width="30" height="30" transform="translate(350 239)" fill="#f3f3f8"/>
      <rect id="長方形_51-24" data-name="長方形 51" width="30" height="30" transform="translate(410 239)" fill="#f3f3f8"/>
      <rect id="長方形_53-3" data-name="長方形 53" width="30" height="30" transform="translate(20 269)" fill="#f3f3f8"/>
      <rect id="長方形_54-3" data-name="長方形 54" width="30" height="30" transform="translate(80 269)" fill="#f3f3f8"/>
      <rect id="長方形_55-3" data-name="長方形 55" width="30" height="30" transform="translate(140 269)" fill="#f3f3f8"/>
      <rect id="長方形_56-3" data-name="長方形 56" width="30" height="30" transform="translate(200 269)" fill="#f3f3f8"/>
      <rect id="長方形_57-3" data-name="長方形 57" width="30" height="30" transform="translate(260 269)" fill="#f3f3f8"/>
      <rect id="長方形_58-3" data-name="長方形 58" width="30" height="30" transform="translate(320 269)" fill="#f3f3f8"/>
      <rect id="長方形_59-3" data-name="長方形 59" width="30" height="30" transform="translate(380 269)" fill="#f3f3f8"/>
    </g>
    <g transform="translate(10 -59)">
      <rect id="長方形_51-25" data-name="長方形 51" width="30" height="30" transform="translate(-10 239)" fill="#f3f3f8"/>
      <rect id="長方形_51-26" data-name="長方形 51" width="30" height="30" transform="translate(50 239)" fill="#f3f3f8"/>
      <rect id="長方形_51-27" data-name="長方形 51" width="30" height="30" transform="translate(110 239)" fill="#f3f3f8"/>
      <rect id="長方形_51-28" data-name="長方形 51" width="30" height="30" transform="translate(170 239)" fill="#f3f3f8"/>
      <rect id="長方形_51-29" data-name="長方形 51" width="30" height="30" transform="translate(230 239)" fill="#f3f3f8"/>
      <rect id="長方形_51-30" data-name="長方形 51" width="30" height="30" transform="translate(290 239)" fill="#f3f3f8"/>
      <rect id="長方形_51-31" data-name="長方形 51" width="30" height="30" transform="translate(350 239)" fill="#f3f3f8"/>
      <rect id="長方形_51-32" data-name="長方形 51" width="30" height="30" transform="translate(410 239)" fill="#f3f3f8"/>
      <rect id="長方形_53-4" data-name="長方形 53" width="30" height="30" transform="translate(20 269)" fill="#f3f3f8"/>
      <rect id="長方形_54-4" data-name="長方形 54" width="30" height="30" transform="translate(80 269)" fill="#f3f3f8"/>
      <rect id="長方形_55-4" data-name="長方形 55" width="30" height="30" transform="translate(140 269)" fill="#f3f3f8"/>
      <rect id="長方形_56-4" data-name="長方形 56" width="30" height="30" transform="translate(200 269)" fill="#f3f3f8"/>
      <rect id="長方形_57-4" data-name="長方形 57" width="30" height="30" transform="translate(260 269)" fill="#f3f3f8"/>
      <rect id="長方形_58-4" data-name="長方形 58" width="30" height="30" transform="translate(320 269)" fill="#f3f3f8"/>
      <rect id="長方形_59-4" data-name="長方形 59" width="30" height="30" transform="translate(380 269)" fill="#f3f3f8"/>
    </g>
    <g transform="translate(10 1)">
      <rect id="長方形_51-33" data-name="長方形 51" width="30" height="30" transform="translate(-10 239)" fill="#f3f3f8"/>
      <rect id="長方形_51-34" data-name="長方形 51" width="30" height="30" transform="translate(50 239)" fill="#f3f3f8"/>
      <rect id="長方形_51-35" data-name="長方形 51" width="30" height="30" transform="translate(110 239)" fill="#f3f3f8"/>
      <rect id="長方形_51-36" data-name="長方形 51" width="30" height="30" transform="translate(170 239)" fill="#f3f3f8"/>
      <rect id="長方形_51-37" data-name="長方形 51" width="30" height="30" transform="translate(230 239)" fill="#f3f3f8"/>
      <rect id="長方形_51-38" data-name="長方形 51" width="30" height="30" transform="translate(290 239)" fill="#f3f3f8"/>
      <rect id="長方形_51-39" data-name="長方形 51" width="30" height="30" transform="translate(350 239)" fill="#f3f3f8"/>
      <rect id="長方形_51-40" data-name="長方形 51" width="30" height="30" transform="translate(410 239)" fill="#f3f3f8"/>
      <rect id="長方形_53-5" data-name="長方形 53" width="30" height="30" transform="translate(20 269)" fill="#f3f3f8"/>
      <rect id="長方形_54-5" data-name="長方形 54" width="30" height="30" transform="translate(80 269)" fill="#f3f3f8"/>
      <rect id="長方形_55-5" data-name="長方形 55" width="30" height="30" transform="translate(140 269)" fill="#f3f3f8"/>
      <rect id="長方形_56-5" data-name="長方形 56" width="30" height="30" transform="translate(200 269)" fill="#f3f3f8"/>
      <rect id="長方形_57-5" data-name="長方形 57" width="30" height="30" transform="translate(260 269)" fill="#f3f3f8"/>
      <rect id="長方形_58-5" data-name="長方形 58" width="30" height="30" transform="translate(320 269)" fill="#f3f3f8"/>
      <rect id="長方形_59-5" data-name="長方形 59" width="30" height="30" transform="translate(380 269)" fill="#f3f3f8"/>
    </g>
    <g transform="translate(10 61)">
      <rect id="長方形_51-41" data-name="長方形 51" width="30" height="30" transform="translate(-10 239)" fill="#f3f3f8"/>
      <rect id="長方形_51-42" data-name="長方形 51" width="30" height="30" transform="translate(50 239)" fill="#f3f3f8"/>
      <rect id="長方形_51-43" data-name="長方形 51" width="30" height="30" transform="translate(110 239)" fill="#f3f3f8"/>
      <rect id="長方形_51-44" data-name="長方形 51" width="30" height="30" transform="translate(170 239)" fill="#f3f3f8"/>
      <rect id="長方形_51-45" data-name="長方形 51" width="30" height="30" transform="translate(230 239)" fill="#f3f3f8"/>
      <rect id="長方形_51-46" data-name="長方形 51" width="30" height="30" transform="translate(290 239)" fill="#f3f3f8"/>
      <rect id="長方形_51-47" data-name="長方形 51" width="30" height="30" transform="translate(350 239)" fill="#f3f3f8"/>
      <rect id="長方形_51-48" data-name="長方形 51" width="30" height="30" transform="translate(410 239)" fill="#f3f3f8"/>
      <rect id="長方形_53-6" data-name="長方形 53" width="30" height="30" transform="translate(20 269)" fill="#f3f3f8"/>
      <rect id="長方形_54-6" data-name="長方形 54" width="30" height="30" transform="translate(80 269)" fill="#f3f3f8"/>
      <rect id="長方形_55-6" data-name="長方形 55" width="30" height="30" transform="translate(140 269)" fill="#f3f3f8"/>
      <rect id="長方形_56-6" data-name="長方形 56" width="30" height="30" transform="translate(200 269)" fill="#f3f3f8"/>
      <rect id="長方形_57-6" data-name="長方形 57" width="30" height="30" transform="translate(260 269)" fill="#f3f3f8"/>
      <rect id="長方形_58-6" data-name="長方形 58" width="30" height="30" transform="translate(320 269)" fill="#f3f3f8"/>
      <rect id="長方形_59-6" data-name="長方形 59" width="30" height="30" transform="translate(380 269)" fill="#f3f3f8"/>
    </g>
    <g transform="translate(10 121)">
      <rect id="長方形_51-49" data-name="長方形 51" width="30" height="30" transform="translate(-10 239)" fill="#f3f3f8"/>
      <rect id="長方形_51-50" data-name="長方形 51" width="30" height="30" transform="translate(50 239)" fill="#f3f3f8"/>
      <rect id="長方形_51-51" data-name="長方形 51" width="30" height="30" transform="translate(110 239)" fill="#f3f3f8"/>
      <rect id="長方形_51-52" data-name="長方形 51" width="30" height="30" transform="translate(170 239)" fill="#f3f3f8"/>
      <rect id="長方形_51-53" data-name="長方形 51" width="30" height="30" transform="translate(230 239)" fill="#f3f3f8"/>
      <rect id="長方形_51-54" data-name="長方形 51" width="30" height="30" transform="translate(290 239)" fill="#f3f3f8"/>
      <rect id="長方形_51-55" data-name="長方形 51" width="30" height="30" transform="translate(350 239)" fill="#f3f3f8"/>
      <rect id="長方形_51-56" data-name="長方形 51" width="30" height="30" transform="translate(410 239)" fill="#f3f3f8"/>
      <rect id="長方形_53-7" data-name="長方形 53" width="30" height="30" transform="translate(20 269)" fill="#f3f3f8"/>
      <rect id="長方形_54-7" data-name="長方形 54" width="30" height="30" transform="translate(80 269)" fill="#f3f3f8"/>
      <rect id="長方形_55-7" data-name="長方形 55" width="30" height="30" transform="translate(140 269)" fill="#f3f3f8"/>
      <rect id="長方形_56-7" data-name="長方形 56" width="30" height="30" transform="translate(200 269)" fill="#f3f3f8"/>
      <rect id="長方形_57-7" data-name="長方形 57" width="30" height="30" transform="translate(260 269)" fill="#f3f3f8"/>
      <rect id="長方形_58-7" data-name="長方形 58" width="30" height="30" transform="translate(320 269)" fill="#f3f3f8"/>
      <rect id="長方形_59-7" data-name="長方形 59" width="30" height="30" transform="translate(380 269)" fill="#f3f3f8"/>
    </g>
    <g transform="translate(10 181)">
      <rect id="長方形_51-57" data-name="長方形 51" width="30" height="30" transform="translate(-10 239)" fill="#f3f3f8"/>
      <rect id="長方形_51-58" data-name="長方形 51" width="30" height="30" transform="translate(50 239)" fill="#f3f3f8"/>
      <rect id="長方形_51-59" data-name="長方形 51" width="30" height="30" transform="translate(110 239)" fill="#f3f3f8"/>
      <rect id="長方形_51-60" data-name="長方形 51" width="30" height="30" transform="translate(170 239)" fill="#f3f3f8"/>
      <rect id="長方形_51-61" data-name="長方形 51" width="30" height="30" transform="translate(230 239)" fill="#f3f3f8"/>
      <rect id="長方形_51-62" data-name="長方形 51" width="30" height="30" transform="translate(290 239)" fill="#f3f3f8"/>
      <rect id="長方形_51-63" data-name="長方形 51" width="30" height="30" transform="translate(350 239)" fill="#f3f3f8"/>
      <rect id="長方形_51-64" data-name="長方形 51" width="30" height="30" transform="translate(410 239)" fill="#f3f3f8"/>
      <rect id="長方形_53-8" data-name="長方形 53" width="30" height="30" transform="translate(20 269)" fill="#f3f3f8"/>
      <rect id="長方形_54-8" data-name="長方形 54" width="30" height="30" transform="translate(80 269)" fill="#f3f3f8"/>
      <rect id="長方形_55-8" data-name="長方形 55" width="30" height="30" transform="translate(140 269)" fill="#f3f3f8"/>
      <rect id="長方形_56-8" data-name="長方形 56" width="30" height="30" transform="translate(200 269)" fill="#f3f3f8"/>
      <rect id="長方形_57-8" data-name="長方形 57" width="30" height="30" transform="translate(260 269)" fill="#f3f3f8"/>
      <rect id="長方形_58-8" data-name="長方形 58" width="30" height="30" transform="translate(320 269)" fill="#f3f3f8"/>
      <rect id="長方形_59-8" data-name="長方形 59" width="30" height="30" transform="translate(380 269)" fill="#f3f3f8"/>
    </g>
    <g transform="translate(10 241)">
      <rect id="長方形_51-65" data-name="長方形 51" width="30" height="30" transform="translate(-10 239)" fill="#f3f3f8"/>
      <rect id="長方形_51-66" data-name="長方形 51" width="30" height="30" transform="translate(50 239)" fill="#f3f3f8"/>
      <rect id="長方形_51-67" data-name="長方形 51" width="30" height="30" transform="translate(110 239)" fill="#f3f3f8"/>
      <rect id="長方形_51-68" data-name="長方形 51" width="30" height="30" transform="translate(170 239)" fill="#f3f3f8"/>
      <rect id="長方形_51-69" data-name="長方形 51" width="30" height="30" transform="translate(230 239)" fill="#f3f3f8"/>
      <rect id="長方形_51-70" data-name="長方形 51" width="30" height="30" transform="translate(290 239)" fill="#f3f3f8"/>
      <rect id="長方形_51-71" data-name="長方形 51" width="30" height="30" transform="translate(350 239)" fill="#f3f3f8"/>
      <rect id="長方形_51-72" data-name="長方形 51" width="30" height="30" transform="translate(410 239)" fill="#f3f3f8"/>
      <rect id="長方形_53-9" data-name="長方形 53" width="30" height="30" transform="translate(20 269)" fill="#f3f3f8"/>
      <rect id="長方形_54-9" data-name="長方形 54" width="30" height="30" transform="translate(80 269)" fill="#f3f3f8"/>
      <rect id="長方形_55-9" data-name="長方形 55" width="30" height="30" transform="translate(140 269)" fill="#f3f3f8"/>
      <rect id="長方形_56-9" data-name="長方形 56" width="30" height="30" transform="translate(200 269)" fill="#f3f3f8"/>
      <rect id="長方形_57-9" data-name="長方形 57" width="30" height="30" transform="translate(260 269)" fill="#f3f3f8"/>
      <rect id="長方形_58-9" data-name="長方形 58" width="30" height="30" transform="translate(320 269)" fill="#f3f3f8"/>
      <rect id="長方形_59-9" data-name="長方形 59" width="30" height="30" transform="translate(380 269)" fill="#f3f3f8"/>
    </g>
    <g transform="translate(10 301)">
      <rect id="長方形_51-73" data-name="長方形 51" width="30" height="30" transform="translate(-10 239)" fill="#f3f3f8"/>
      <rect id="長方形_51-74" data-name="長方形 51" width="30" height="30" transform="translate(50 239)" fill="#f3f3f8"/>
      <rect id="長方形_51-75" data-name="長方形 51" width="30" height="30" transform="translate(110 239)" fill="#f3f3f8"/>
      <rect id="長方形_51-76" data-name="長方形 51" width="30" height="30" transform="translate(170 239)" fill="#f3f3f8"/>
      <rect id="長方形_51-77" data-name="長方形 51" width="30" height="30" transform="translate(230 239)" fill="#f3f3f8"/>
      <rect id="長方形_51-78" data-name="長方形 51" width="30" height="30" transform="translate(290 239)" fill="#f3f3f8"/>
      <rect id="長方形_51-79" data-name="長方形 51" width="30" height="30" transform="translate(350 239)" fill="#f3f3f8"/>
      <rect id="長方形_51-80" data-name="長方形 51" width="30" height="30" transform="translate(410 239)" fill="#f3f3f8"/>
      <rect id="長方形_53-10" data-name="長方形 53" width="30" height="30" transform="translate(20 269)" fill="#f3f3f8"/>
      <rect id="長方形_54-10" data-name="長方形 54" width="30" height="30" transform="translate(80 269)" fill="#f3f3f8"/>
      <rect id="長方形_55-10" data-name="長方形 55" width="30" height="30" transform="translate(140 269)" fill="#f3f3f8"/>
      <rect id="長方形_56-10" data-name="長方形 56" width="30" height="30" transform="translate(200 269)" fill="#f3f3f8"/>
      <rect id="長方形_57-10" data-name="長方形 57" width="30" height="30" transform="translate(260 269)" fill="#f3f3f8"/>
      <rect id="長方形_58-10" data-name="長方形 58" width="30" height="30" transform="translate(320 269)" fill="#f3f3f8"/>
      <rect id="長方形_59-10" data-name="長方形 59" width="30" height="30" transform="translate(380 269)" fill="#f3f3f8"/>
    </g>
    <g transform="translate(10 361)">
      <rect id="長方形_51-81" data-name="長方形 51" width="30" height="30" transform="translate(-10 239)" fill="#f3f3f8"/>
      <rect id="長方形_51-82" data-name="長方形 51" width="30" height="30" transform="translate(50 239)" fill="#f3f3f8"/>
      <rect id="長方形_51-83" data-name="長方形 51" width="30" height="30" transform="translate(110 239)" fill="#f3f3f8"/>
      <rect id="長方形_51-84" data-name="長方形 51" width="30" height="30" transform="translate(170 239)" fill="#f3f3f8"/>
      <rect id="長方形_51-85" data-name="長方形 51" width="30" height="30" transform="translate(230 239)" fill="#f3f3f8"/>
      <rect id="長方形_51-86" data-name="長方形 51" width="30" height="30" transform="translate(290 239)" fill="#f3f3f8"/>
      <rect id="長方形_51-87" data-name="長方形 51" width="30" height="30" transform="translate(350 239)" fill="#f3f3f8"/>
      <rect id="長方形_51-88" data-name="長方形 51" width="30" height="30" transform="translate(410 239)" fill="#f3f3f8"/>
      <rect id="長方形_53-11" data-name="長方形 53" width="30" height="30" transform="translate(20 269)" fill="#f3f3f8"/>
      <rect id="長方形_54-11" data-name="長方形 54" width="30" height="30" transform="translate(80 269)" fill="#f3f3f8"/>
      <rect id="長方形_55-11" data-name="長方形 55" width="30" height="30" transform="translate(140 269)" fill="#f3f3f8"/>
      <rect id="長方形_56-11" data-name="長方形 56" width="30" height="30" transform="translate(200 269)" fill="#f3f3f8"/>
      <rect id="長方形_57-11" data-name="長方形 57" width="30" height="30" transform="translate(260 269)" fill="#f3f3f8"/>
      <rect id="長方形_58-11" data-name="長方形 58" width="30" height="30" transform="translate(320 269)" fill="#f3f3f8"/>
      <rect id="長方形_59-11" data-name="長方形 59" width="30" height="30" transform="translate(380 269)" fill="#f3f3f8"/>
    </g>
    <g transform="translate(10 421)">
      <rect id="長方形_51-89" data-name="長方形 51" width="30" height="30" transform="translate(-10 239)" fill="#f3f3f8"/>
      <rect id="長方形_51-90" data-name="長方形 51" width="30" height="30" transform="translate(50 239)" fill="#f3f3f8"/>
      <rect id="長方形_51-91" data-name="長方形 51" width="30" height="30" transform="translate(110 239)" fill="#f3f3f8"/>
      <rect id="長方形_51-92" data-name="長方形 51" width="30" height="30" transform="translate(170 239)" fill="#f3f3f8"/>
      <rect id="長方形_51-93" data-name="長方形 51" width="30" height="30" transform="translate(230 239)" fill="#f3f3f8"/>
      <rect id="長方形_51-94" data-name="長方形 51" width="30" height="30" transform="translate(290 239)" fill="#f3f3f8"/>
      <rect id="長方形_51-95" data-name="長方形 51" width="30" height="30" transform="translate(350 239)" fill="#f3f3f8"/>
      <rect id="長方形_51-96" data-name="長方形 51" width="30" height="30" transform="translate(410 239)" fill="#f3f3f8"/>
      <rect id="長方形_53-12" data-name="長方形 53" width="30" height="30" transform="translate(20 269)" fill="#f3f3f8"/>
      <rect id="長方形_54-12" data-name="長方形 54" width="30" height="30" transform="translate(80 269)" fill="#f3f3f8"/>
      <rect id="長方形_55-12" data-name="長方形 55" width="30" height="30" transform="translate(140 269)" fill="#f3f3f8"/>
      <rect id="長方形_56-12" data-name="長方形 56" width="30" height="30" transform="translate(200 269)" fill="#f3f3f8"/>
      <rect id="長方形_57-12" data-name="長方形 57" width="30" height="30" transform="translate(260 269)" fill="#f3f3f8"/>
      <rect id="長方形_58-12" data-name="長方形 58" width="30" height="30" transform="translate(320 269)" fill="#f3f3f8"/>
      <rect id="長方形_59-12" data-name="長方形 59" width="30" height="30" transform="translate(380 269)" fill="#f3f3f8"/>
    </g>
    <g transform="translate(10 481)">
      <rect id="長方形_51-97" data-name="長方形 51" width="30" height="30" transform="translate(-10 239)" fill="#f3f3f8"/>
      <rect id="長方形_51-98" data-name="長方形 51" width="30" height="30" transform="translate(50 239)" fill="#f3f3f8"/>
      <rect id="長方形_51-99" data-name="長方形 51" width="30" height="30" transform="translate(110 239)" fill="#f3f3f8"/>
      <rect id="長方形_51-100" data-name="長方形 51" width="30" height="30" transform="translate(170 239)" fill="#f3f3f8"/>
      <rect id="長方形_51-101" data-name="長方形 51" width="30" height="30" transform="translate(230 239)" fill="#f3f3f8"/>
      <rect id="長方形_51-102" data-name="長方形 51" width="30" height="30" transform="translate(290 239)" fill="#f3f3f8"/>
      <rect id="長方形_51-103" data-name="長方形 51" width="30" height="30" transform="translate(350 239)" fill="#f3f3f8"/>
      <rect id="長方形_51-104" data-name="長方形 51" width="30" height="30" transform="translate(410 239)" fill="#f3f3f8"/>
      <rect id="長方形_53-13" data-name="長方形 53" width="30" height="30" transform="translate(20 269)" fill="#f3f3f8"/>
      <rect id="長方形_54-13" data-name="長方形 54" width="30" height="30" transform="translate(80 269)" fill="#f3f3f8"/>
      <rect id="長方形_55-13" data-name="長方形 55" width="30" height="30" transform="translate(140 269)" fill="#f3f3f8"/>
      <rect id="長方形_56-13" data-name="長方形 56" width="30" height="30" transform="translate(200 269)" fill="#f3f3f8"/>
      <rect id="長方形_57-13" data-name="長方形 57" width="30" height="30" transform="translate(260 269)" fill="#f3f3f8"/>
      <rect id="長方形_58-13" data-name="長方形 58" width="30" height="30" transform="translate(320 269)" fill="#f3f3f8"/>
      <rect id="長方形_59-13" data-name="長方形 59" width="30" height="30" transform="translate(380 269)" fill="#f3f3f8"/>
    </g>
    <g transform="translate(10 541)">
      <rect id="長方形_51-105" data-name="長方形 51" width="30" height="30" transform="translate(-10 239)" fill="#f3f3f8"/>
      <rect id="長方形_51-106" data-name="長方形 51" width="30" height="30" transform="translate(50 239)" fill="#f3f3f8"/>
      <rect id="長方形_51-107" data-name="長方形 51" width="30" height="30" transform="translate(110 239)" fill="#f3f3f8"/>
      <rect id="長方形_51-108" data-name="長方形 51" width="30" height="30" transform="translate(170 239)" fill="#f3f3f8"/>
      <rect id="長方形_51-109" data-name="長方形 51" width="30" height="30" transform="translate(230 239)" fill="#f3f3f8"/>
      <rect id="長方形_51-110" data-name="長方形 51" width="30" height="30" transform="translate(290 239)" fill="#f3f3f8"/>
      <rect id="長方形_51-111" data-name="長方形 51" width="30" height="30" transform="translate(350 239)" fill="#f3f3f8"/>
      <rect id="長方形_51-112" data-name="長方形 51" width="30" height="30" transform="translate(410 239)" fill="#f3f3f8"/>
      <rect id="長方形_53-14" data-name="長方形 53" width="30" height="30" transform="translate(20 269)" fill="#f3f3f8"/>
      <rect id="長方形_54-14" data-name="長方形 54" width="30" height="30" transform="translate(80 269)" fill="#f3f3f8"/>
      <rect id="長方形_55-14" data-name="長方形 55" width="30" height="30" transform="translate(140 269)" fill="#f3f3f8"/>
      <rect id="長方形_56-14" data-name="長方形 56" width="30" height="30" transform="translate(200 269)" fill="#f3f3f8"/>
      <rect id="長方形_57-14" data-name="長方形 57" width="30" height="30" transform="translate(260 269)" fill="#f3f3f8"/>
      <rect id="長方形_58-14" data-name="長方形 58" width="30" height="30" transform="translate(320 269)" fill="#f3f3f8"/>
      <rect id="長方形_59-14" data-name="長方形 59" width="30" height="30" transform="translate(380 269)" fill="#f3f3f8"/>
    </g>
    <g transform="translate(10 601)">
      <rect id="長方形_51-113" data-name="長方形 51" width="30" height="30" transform="translate(-10 239)" fill="#f3f3f8"/>
      <rect id="長方形_51-114" data-name="長方形 51" width="30" height="30" transform="translate(50 239)" fill="#f3f3f8"/>
      <rect id="長方形_51-115" data-name="長方形 51" width="30" height="30" transform="translate(110 239)" fill="#f3f3f8"/>
      <rect id="長方形_51-116" data-name="長方形 51" width="30" height="30" transform="translate(170 239)" fill="#f3f3f8"/>
      <rect id="長方形_51-117" data-name="長方形 51" width="30" height="30" transform="translate(230 239)" fill="#f3f3f8"/>
      <rect id="長方形_51-118" data-name="長方形 51" width="30" height="30" transform="translate(290 239)" fill="#f3f3f8"/>
      <rect id="長方形_51-119" data-name="長方形 51" width="30" height="30" transform="translate(350 239)" fill="#f3f3f8"/>
      <rect id="長方形_51-120" data-name="長方形 51" width="30" height="30" transform="translate(410 239)" fill="#f3f3f8"/>
      <rect id="長方形_53-15" data-name="長方形 53" width="30" height="30" transform="translate(20 269)" fill="#f3f3f8"/>
      <rect id="長方形_54-15" data-name="長方形 54" width="30" height="30" transform="translate(80 269)" fill="#f3f3f8"/>
      <rect id="長方形_55-15" data-name="長方形 55" width="30" height="30" transform="translate(140 269)" fill="#f3f3f8"/>
      <rect id="長方形_56-15" data-name="長方形 56" width="30" height="30" transform="translate(200 269)" fill="#f3f3f8"/>
      <rect id="長方形_57-15" data-name="長方形 57" width="30" height="30" transform="translate(260 269)" fill="#f3f3f8"/>
      <rect id="長方形_58-15" data-name="長方形 58" width="30" height="30" transform="translate(320 269)" fill="#f3f3f8"/>
      <rect id="長方形_59-15" data-name="長方形 59" width="30" height="30" transform="translate(380 269)" fill="#f3f3f8"/>
    </g>
    <g transform="translate(10 661)">
      <rect id="長方形_51-121" data-name="長方形 51" width="30" height="30" transform="translate(-10 239)" fill="#f3f3f8"/>
      <rect id="長方形_51-122" data-name="長方形 51" width="30" height="30" transform="translate(50 239)" fill="#f3f3f8"/>
      <rect id="長方形_51-123" data-name="長方形 51" width="30" height="30" transform="translate(110 239)" fill="#f3f3f8"/>
      <rect id="長方形_51-124" data-name="長方形 51" width="30" height="30" transform="translate(170 239)" fill="#f3f3f8"/>
      <rect id="長方形_51-125" data-name="長方形 51" width="30" height="30" transform="translate(230 239)" fill="#f3f3f8"/>
      <rect id="長方形_51-126" data-name="長方形 51" width="30" height="30" transform="translate(290 239)" fill="#f3f3f8"/>
      <rect id="長方形_51-127" data-name="長方形 51" width="30" height="30" transform="translate(350 239)" fill="#f3f3f8"/>
      <rect id="長方形_51-128" data-name="長方形 51" width="30" height="30" transform="translate(410 239)" fill="#f3f3f8"/>
      <rect id="長方形_53-16" data-name="長方形 53" width="30" height="30" transform="translate(20 269)" fill="#f3f3f8"/>
      <rect id="長方形_54-16" data-name="長方形 54" width="30" height="30" transform="translate(80 269)" fill="#f3f3f8"/>
      <rect id="長方形_55-16" data-name="長方形 55" width="30" height="30" transform="translate(140 269)" fill="#f3f3f8"/>
      <rect id="長方形_56-16" data-name="長方形 56" width="30" height="30" transform="translate(200 269)" fill="#f3f3f8"/>
      <rect id="長方形_57-16" data-name="長方形 57" width="30" height="30" transform="translate(260 269)" fill="#f3f3f8"/>
      <rect id="長方形_58-16" data-name="長方形 58" width="30" height="30" transform="translate(320 269)" fill="#f3f3f8"/>
      <rect id="長方形_59-16" data-name="長方形 59" width="30" height="30" transform="translate(380 269)" fill="#f3f3f8"/>
    </g>
  </g>
</svg>
