<svg xmlns="http://www.w3.org/2000/svg" xmlns:xlink="http://www.w3.org/1999/xlink" width="101" height="101" viewBox="0 0 101 101">
  <defs>
    <filter id="楕円形_34" x="0" y="0" width="101" height="101" filterUnits="userSpaceOnUse">
      <feOffset dy="3" input="SourceAlpha"/>
      <feGaussianBlur stdDeviation="3" result="blur"/>
      <feFlood flood-opacity="0.161"/>
      <feComposite operator="in" in2="blur"/>
      <feComposite in="SourceGraphic"/>
    </filter>
    <clipPath id="clip-path">
      <rect id="長方形_282" data-name="長方形 282" width="45" height="45" transform="translate(151 743)" fill="#fff" stroke="#707070" stroke-width="1"/>
    </clipPath>
  </defs>
  <g id="履歴ボタン" transform="translate(-123 -720)">
    <g transform="matrix(1, 0, 0, 1, 123, 720)" filter="url(#楕円形_34)">
      <g id="楕円形_34-2" data-name="楕円形 34" transform="translate(9 6)" fill="#f3f3f8" stroke="#92bcd1" stroke-width="4">
        <circle cx="41.5" cy="41.5" r="41.5" stroke="none"/>
        <circle cx="41.5" cy="41.5" r="39.5" fill="none"/>
      </g>
    </g>
    <g id="楕円形_32" data-name="楕円形 32" transform="translate(136 730)" fill="none" stroke="#92bcd1" stroke-width="4" stroke-dasharray="2 1.99">
      <circle cx="37.5" cy="37.5" r="37.5" stroke="none"/>
      <circle cx="37.5" cy="37.5" r="35.5" fill="none"/>
    </g>
    <text id="投票履歴" transform="translate(174 792)" fill="#e07494" font-size="8" font-family="ZenMaruGothic-Bold, Zen Maru Gothic" font-weight="700"><tspan x="-16" y="0">投票履歴</tspan></text>
    <g id="履歴マーク" transform="translate(0 -5)" clip-path="url(#clip-path)">
      <g id="履歴マーク-2" data-name="履歴マーク" transform="translate(-14 -100)">
        <g id="グループ_23" data-name="グループ 23" transform="translate(-293.438 126.776) rotate(-21)">
          <g id="楕円形_33" data-name="楕円形 33" transform="matrix(0.695, -0.719, 0.719, 0.695, 155.98, 862.505)" fill="none" stroke="#e07494" stroke-linecap="round" stroke-width="4" stroke-dasharray="105">
            <circle cx="20" cy="20" r="20" stroke="none"/>
            <circle cx="20" cy="20" r="18" fill="none"/>
          </g>
          <g id="グループ_22" data-name="グループ 22" transform="translate(169.765 844.58) rotate(7)">
            <line id="線_94" data-name="線 94" x2="6.677" transform="translate(0 6.677) rotate(-90)" fill="none" stroke="#e07494" stroke-linecap="round" stroke-width="4"/>
            <line id="線_95" data-name="線 95" x2="6.677" transform="translate(0 6.677)" fill="none" stroke="#e07494" stroke-linecap="round" stroke-width="4"/>
          </g>
        </g>
        <g id="グループ_21" data-name="グループ 21" transform="translate(186.5 858.09)">
          <line id="線_92" data-name="線 92" x2="9.021" transform="translate(0 9.021) rotate(-90)" fill="none" stroke="#e07494" stroke-linecap="round" stroke-width="4"/>
          <line id="線_93" data-name="線 93" x2="9.021" transform="translate(6.911 14.82) rotate(-140)" fill="none" stroke="#e07494" stroke-linecap="round" stroke-width="4"/>
        </g>
      </g>
    </g>
  </g>
</svg>
