<?xml version="1.0" encoding="UTF-8"?>
<svg id="_レイヤー_2" data-name="レイヤー 2" xmlns="http://www.w3.org/2000/svg" viewBox="0 0 181.6 151.4">
  <defs>
    <style>
      .cls-1 {
        fill: #3e3a39;
      }

      .cls-1, .cls-2, .cls-3, .cls-4, .cls-5, .cls-6, .cls-7 {
        stroke-width: 0px;
      }

      .cls-2 {
        fill: #231815;
      }

      .cls-3 {
        fill: #82b6c2;
      }

      .cls-4 {
        fill: #efb2ad;
      }

      .cls-5 {
        fill: #d06183;
      }

      .cls-6 {
        fill: #65b4de;
      }

      .cls-7 {
        fill: #eb9c99;
      }
    </style>
  </defs>
  <g id="_レイヤー_1-2" data-name="レイヤー 1">
    <path class="cls-3" d="M90.75,130.42l.1-.14"/>
    <g>
      <g>
        <path class="cls-1" d="M153.39,46.36c-.16.13-.26.29-.32.42.14-.03.29-.09.45-.21.18-.14.28-.3.33-.44-.13.03-.29.09-.46.23Z"/>
        <path class="cls-1" d="M157.76,55.92v6.22c.58-.51,1.29-1,2.18-1.45,4.75-2.4,5.92-7.49,4.97-13.51-2.38,2.57-4.75,5.13-7.13,7.69,0,.34-.02.67-.02,1.04Z"/>
        <path class="cls-1" d="M143.39,47.33c1.41.59,2.53,1.47,3.32,2.63.17.24.31.49.44.75.15-.43.41-.81.77-1.1.22-.18.48-.3.74-.39-1.71-.74-3.39-1.46-5.07-2.18-.07.1-.13.2-.2.3Z"/>
        <path class="cls-1" d="M23.54,48.57c.62.43,1.12.85,1.53,1.29v-1.37c-.67.11-1.36-.07-1.9-.48-.62-.47-.98-1.21-.98-1.99v-.78c0-1.13.75-2.12,1.84-2.41.49-.13.98-.26,1.47-.39-1.6-2.43-3.25-4.93-4.9-7.43-.49.26-.98.52-1.47.77-.65,4.91.04,9.81,4.4,12.79Z"/>
        <path class="cls-1" d="M158,47.07c0,.66-.15,1.29-.42,1.85.16-.12.31-.24.48-.35,4.37-2.98,5.05-7.89,4.4-12.79-.49-.26-.98-.52-1.47-.77-1.75,2.65-3.49,5.3-5.18,7.85,1.3,1,2.18,2.59,2.18,4.22Z"/>
        <path class="cls-1" d="M21.67,60.7c1.65.83,2.7,1.79,3.37,2.84,0,0,.01,0,.02,0v-7.3c-2.77-3.01-5.57-6.02-8.36-9.03-.95,6.01.22,11.11,4.97,13.51Z"/>
        <path class="cls-1" d="M139.29,15.89c-3.77.68-6.21,1.12-8.64,1.55,2.78,5.36,9.51-.45,12.1,5.33-2.95.23-5.36.42-7.9.62,2.34,6.24,11.44.46,12.55,7.88-2.97-.37-5.77-.73-8.57-1.08-.19.58-.38,1.17-.56,1.75,2.46,1.17,4.85,3.08,7.4,3.33,4.08.4,5.2,2.26,5,5.31-3.06-.8-6.02-1.58-8.99-2.36l-.76,1.93c2.66,1.63,5.14,3.95,8.04,4.73.03,0,.05.02.08.02.22-.92.71-1.72,1.43-2.28.73-.57,1.64-.85,2.6-.82-.17-1.53.52-2.41,2.43-4.86,2.96-3.8,2.93-7.98,2.03-12.26-.5-.18-1-.37-1.5-.55-1.71,3.58-3.41,7.15-5.16,10.82-.7-1.59-1.44-3.26-2.21-5.03,4.25-4.46,5.07-9.34,1.08-14.98-1.04,3.4-2.07,6.8-3.11,10.2-1.21-2.13-1.73-4.5-1.1-6.51,1.29-4.17.86-7.77-2.72-11.24-.54,3.21-1.08,6.42-1.62,9.64-1.36-1.55-2.18-3.44-1.9-5.15.68-4.05.22-7.5-3.75-11.32v10.3C125.31.77,122.84-.62,115.85.2c4.19,2.86,7.79,5.34,11.43,7.78,3.74,2.5,7.51,4.95,12.01,7.92Z"/>
        <path class="cls-1" d="M28.57,41.63c1.06-.27,2.06-.55,3.25-.88,1.28-.36,2.61.34,3.04,1.6.16.46.31.92.47,1.38,1.56-.89,3.05-2.04,4.57-3.05.03-.11.06-.22.1-.33.09-.31.25-.58.45-.83-.17-.43-.34-.85-.51-1.28-2.96.78-5.93,1.56-8.99,2.36-.2-3.06.92-4.91,5-5.31,2.55-.25,4.94-2.16,7.4-3.33-.19-.58-.38-1.17-.56-1.75-2.8.35-5.61.71-8.57,1.08,1.11-7.42,10.21-1.64,12.55-7.88-2.55-.2-4.95-.39-7.9-.62,2.6-5.78,9.32.03,12.1-5.33-2.43-.44-4.87-.87-8.64-1.55,4.5-2.97,8.27-5.42,12.01-7.92,3.63-2.43,7.23-4.92,11.43-7.78-6.99-.82-9.45.57-19.66,10.66V.56c-3.97,3.82-4.42,7.27-3.75,11.32.28,1.71-.54,3.6-1.9,5.15-.54-3.21-1.08-6.42-1.62-9.64-3.58,3.47-4.02,7.07-2.72,11.24.62,2.01.11,4.38-1.1,6.51-1.04-3.4-2.07-6.8-3.11-10.2-3.99,5.65-3.17,10.52,1.08,14.98-.78,1.76-1.51,3.44-2.21,5.03-1.75-3.67-3.45-7.24-5.16-10.82-.5.18-1,.37-1.5.55-.9,4.28-.93,8.46,2.03,12.26,1.83,2.35,2.54,3.26,2.45,4.68Z"/>
      </g>
      <g>
        <path class="cls-1" d="M154.15,73.04c-.14.12-.23.27-.26.39.11-.01.26-.06.4-.17.17-.13.24-.3.26-.4-.1,0-.25.06-.4.18Z"/>
        <path class="cls-1" d="M150.56,81.32v-1.4s-.02,0-.03-.01c.02.31.02.62.02.96v.43s0,.01,0,.02Z"/>
        <path class="cls-1" d="M150.56,84.84s0,.01,0,.02v.59s0,0,0,0v-.61Z"/>
        <path class="cls-1" d="M40.63,80.27c.11-.12.22-.23.34-.34-.12-.11-.23-.24-.33-.37,0,0-.01,0-.02,0,0,.1,0,.19,0,.29v.41Z"/>
        <path class="cls-1" d="M154.59,69.52c1.84.39,3.27,2.17,3.27,4.05,0,.47-.1.91-.27,1.32.67-.35,1.42-.67,2.29-.95,5.17-1.63,6.97-6.89,8.05-11.91-.37-.41-.74-.81-1.11-1.22-2.41,1.94-4.81,3.86-7.19,5.78v.53c0,.78-.36,1.51-.98,1.99-.44.34-.97.51-1.52.51-.22,0-.44-.03-.66-.09-.12-.03-.25-.07-.37-.1-.16.13-.32.26-.48.38-.01-.17-.03-.35-.04-.52-.96-.26-1.93-.52-2.9-.77.23.32.39.65.53.99.44-.08.9-.08,1.36.01Z"/>
        <path class="cls-1" d="M18.31,71.09c1.6-.39,3.06-.42,4.41-.1.33-.41.82-.67,1.35-.72l.58-.06c.18-.02.37,0,.54.03.2-.21.44-.38.72-.49-.14-.11-.28-.23-.42-.34-.12.03-.25.07-.37.1-.22.06-.44.09-.66.09-.54,0-1.08-.18-1.52-.51-.62-.47-.98-1.21-.98-1.99v-.53c-2.38-1.91-4.78-3.84-7.19-5.78-.37.41-.74.81-1.11,1.22.73,3.38,1.78,6.85,3.96,9.27.23-.07.45-.14.68-.2Z"/>
        <path class="cls-1" d="M147.22,102.22c4.53.53,8.57-.65,11.88-3.68-.41-.1-.83-.19-1.24-.29-.91-.21-1.56-1.02-1.56-1.95v-.62c0-.59.26-1.16.72-1.54.28-.23.62-.38.97-.44,0-.15,0-.31,0-.47v-.35c-3.56,1.16-6.87,2.24-10.24,3.34.99-2.19,1.62-4.43,3.22-5.98-.15-.03-.31-.07-.46-.1-.15-.03-.29-.08-.42-.14-.02,0-.04,0-.07,0-.13,0-.26-.01-.39-.04-1.94-.38-3.89-.75-5.84-1.09.81,1.82,1.65,3.69,2.54,5.68-.87,1.42-2.32,3.81-4.16,6.83-.94-8.99-1.79-10.62-7.63-13.3,1.42,6.34,2.65,11.8,4,17.84-1.49,1.42-3.52,3.36-5.55,5.3,1-5.54.56-10.2-3.95-14.05-1.02,4-1.82,8.01-1.59,11.95.38,6.52-1.04,8.51-8.25,9.49,3.61-4.68,4.63-9.54.83-14.94-2.21,4.57-3.55,9.36-5.07,14.09-.45,1.4-1.08,3.38-2.14,3.81-2.74,1.1-5.78,1.49-8.69,2.17,4.69-4.4,7.29-9.08,6.28-16.02-5.81,3.33-9.21,7.93-10.78,13.55-1.35,4.85-5.91,5.44-8.72,5.39-.03,0-.06,0-.1,0-.03,0-.06,0-.1,0-2.8.05-7.37-.54-8.72-5.39-1.57-5.62-4.97-10.22-10.78-13.55-1.02,6.94,1.59,11.62,6.28,16.02-2.92-.67-5.95-1.06-8.69-2.17-1.06-.43-1.69-2.41-2.14-3.81-1.52-4.73-2.87-9.51-5.07-14.09-3.8,5.41-2.78,10.26.83,14.94-7.21-.98-8.63-2.97-8.25-9.49.23-3.94-.56-7.95-1.59-11.95-4.52,3.85-4.96,8.51-3.95,14.05-2.03-1.94-4.06-3.88-5.55-5.3,1.35-6.04,2.58-11.5,4-17.84-5.84,2.68-6.69,4.31-7.63,13.3-1.83-3.01-3.29-5.4-4.16-6.83.89-1.98,1.72-3.85,2.53-5.66-1.11.2-2.21.38-3.31.59-.26.05-.52.04-.78,0-.21.14-.46.24-.72.29-.78.15-1.56.32-2.35.48,1.59,1.55,2.22,3.78,3.21,5.97-3.96-1.29-7.83-2.56-12.12-3.96-.76.37-1.53.64-2.48.86-.26.06-.51.09-.77.14,3.76,6.86,9.31,9.72,15.88,8.94q3.51-.41,8.05,6.18c-5.53-.42-11.36-.86-17.2-1.31,5.73,8.28,12.1,9.83,20.28,6.95,1.44-.51,3.6.48,5.24,1.2,1.68.74,3.13,2,4.7,3.05-6.23,1.13-12.41,2.26-18.59,3.38,7.73,6.91,15.38,6.72,22.27,1.49,1.42-1.08,4.14-.81,6.2-.59,1.93.2,3.78,1.17,5.3,1.67-5.81,2.88-11.67,5.77-18.47,9.14,7.74,4.15,17.33,2.24,21.76-3.16,4.69-5.71,7.58-6.06,13.73-1.89-1.75,3.28-3.49,6.54-5.22,9.81.38.21.76.43,1.14.64,2.15-3.07,4.29-6.14,6.99-10,0,0,.21-.18.43,0,2.7,3.86,4.85,6.93,6.99,10,.38-.21.76-.43,1.14-.64-1.74-3.26-3.48-6.53-5.22-9.81,6.15-4.17,9.04-3.83,13.73,1.89,4.44,5.41,14.02,7.31,21.76,3.16-6.79-3.36-12.66-6.26-18.47-9.14,1.52-.51,3.37-1.47,5.3-1.67,2.06-.22,4.78-.49,6.2.59,6.89,5.23,14.54,5.42,22.27-1.49-6.18-1.12-12.36-2.25-18.59-3.38,1.57-1.05,3.02-2.31,4.7-3.05,1.64-.72,3.8-1.71,5.24-1.2,8.18,2.89,14.55,1.33,20.28-6.95-5.84.44-11.67.89-17.2,1.31q4.54-6.6,8.05-6.18Z"/>
        <path class="cls-1" d="M26.14,69.68c1.31-.34,2.01-.54,2.53-.76.08-.13.15-.27.24-.4-.97.25-1.93.51-2.9.77-.01.15-.02.3-.03.46.05-.02.11-.04.16-.06Z"/>
        <path class="cls-1" d="M33.29,73.61v.91c.4-.17.83-.3,1.29-.38.58-.11,1.16-.12,1.71-.06,1.07-1.75,2.06-3.59,3.16-5.32-.63-.54-1.26-1.07-1.89-1.61-1.41,1.3-2.81,2.6-4.2,3.88-.04.86-.07,1.73-.07,2.58Z"/>
        <path class="cls-1" d="M143.32,68.5c-.04.67-.07,1.35-.09,2.03.64,1.09,1.27,2.19,1.92,3.27.03,0,.05,0,.07,0,1.6.29,3.11,1.25,4.1,2.54.11-.19.25-.38.43-.52.45-.38,1.05-.54,1.64-.43.05,0,.1.02.15.03-.53-.62-.86-1.4-.94-2.22-2.15-1.99-4.34-4.01-6.55-6.05-.27.23-.54.46-.81.69.06.22.1.44.08.67Z"/>
        <path class="cls-1" d="M166.35,75.52c-1.13.65-2.26,1.3-3.38,1.95.5.04.96.26,1.3.63l.29.32s.03.03.04.04c.72-.12,1.49-.09,2.29.08.21-.47.42-.95.61-1.42l-1.15-1.6Z"/>
      </g>
    </g>
    <g>
      <path class="cls-6" d="M33.56,40.9c.59.28,1.07.78,1.3,1.45.28.8.55,1.61.83,2.42,1.27-.61,2.48-1.45,3.69-2.3.18-.61.38-1.31.62-2.13.17-.6.58-1.08,1.08-1.4,0,0,0,0,0-.01-2.48.65-4.98,1.31-7.52,1.97Z"/>
      <path class="cls-6" d="M146.72,49.96c.17.24.31.49.44.75.12-.34.31-.64.56-.9-.59-.25-1.17-.5-1.75-.75.27.28.53.58.75.9Z"/>
      <path class="cls-6" d="M157.76,55.92v5.32c.2-.12.4-.23.63-.34,4.65-2.34,5.79-7.33,4.86-13.2-1.81,1.95-3.61,3.89-5.41,5.84-.04.77-.08,1.54-.08,2.39Z"/>
      <path class="cls-6" d="M24.3,48.47c.24.19.49.38.75.56.01,0,.02.01.03.02v-.57c-.26.04-.52.03-.78-.01Z"/>
      <path class="cls-6" d="M158,47.07c0,.3-.04.58-.09.86,3.05-2.94,3.51-7.17,2.95-11.41-.48-.25-.95-.5-1.43-.76-1.46,2.22-2.92,4.44-4.35,6.6,1.7.9,2.92,2.78,2.92,4.7Z"/>
      <path class="cls-6" d="M23.22,60.89c.73.37,1.33.76,1.84,1.18v-7.13c-2.22-2.41-4.46-4.83-6.7-7.24-.93,5.88.21,10.86,4.86,13.2Z"/>
      <path class="cls-6" d="M22.19,46.02v-.78c0-1.13.75-2.12,1.84-2.41.79-.22,1.59-.42,2.38-.63-1.39-2.11-2.81-4.26-4.23-6.42-.48.25-.95.5-1.43.76-.45,3.41-.24,6.81,1.45,9.54,0-.02,0-.04,0-.06Z"/>
      <path class="cls-6" d="M29.89,41.28c.61-.17,1.24-.34,1.93-.53.15-.04.3-.07.45-.08-.02-2.65,1.18-4.26,4.91-4.63,2.49-.24,4.83-2.11,7.23-3.25-.18-.57-.37-1.14-.55-1.71-2.74.34-5.48.69-8.38,1.05,1.08-7.25,9.98-1.61,12.27-7.7-2.49-.2-4.84-.38-7.73-.61,2.54-5.65,9.11.03,11.83-5.21-2.38-.43-4.76-.86-8.45-1.52,4.4-2.9,8.09-5.3,11.74-7.74,3.55-2.38,7.07-4.81,11.17-7.6-6.84-.8-9.24.56-19.22,10.42V2.11c-3.88,3.73-4.32,7.11-3.66,11.07.28,1.67-.53,3.52-1.86,5.03-.53-3.14-1.05-6.28-1.58-9.42-3.5,3.4-3.93,6.91-2.66,10.99.61,1.97.11,4.28-1.08,6.36-1.01-3.32-2.02-6.65-3.04-9.97-3.9,5.52-3.1,10.28,1.05,14.65-.76,1.72-1.48,3.36-2.16,4.91-1.71-3.58-3.38-7.08-5.04-10.58-.49.18-.98.36-1.46.54-.88,4.18-.91,8.27,1.98,11.99,1.35,1.73,2.07,2.66,2.31,3.61Z"/>
      <path class="cls-6" d="M138.2,17.09c-3.69.66-6.07,1.09-8.45,1.52,2.72,5.24,9.29-.44,11.83,5.21-2.89.23-5.24.41-7.73.61,2.28,6.1,11.18.45,12.27,7.7-2.9-.36-5.64-.71-8.38-1.05-.18.57-.37,1.14-.55,1.71,2.4,1.14,4.74,3.01,7.23,3.25,3.99.39,5.09,2.21,4.89,5.19-2.99-.78-5.89-1.54-8.79-2.31-.25.63-.5,1.26-.74,1.88,2.6,1.59,5.03,3.86,7.86,4.62.47.13.89.27,1.26.42.03-1.31.58-2.48,1.55-3.23.35-.27.76-.46,1.18-.59,0-1.27.71-2.18,2.4-4.35,2.89-3.71,2.86-7.8,1.98-11.99-.49-.18-.98-.36-1.46-.54-1.67,3.5-3.34,6.99-5.04,10.58-.68-1.55-1.4-3.19-2.16-4.91,4.15-4.36,4.96-9.13,1.05-14.65-1.01,3.32-2.02,6.65-3.04,9.97-1.18-2.08-1.69-4.39-1.08-6.36,1.26-4.08.84-7.59-2.66-10.99-.53,3.14-1.05,6.28-1.58,9.42-1.33-1.51-2.13-3.36-1.86-5.03.66-3.96.21-7.33-3.66-11.07v10.06C124.53,2.3,122.13.95,115.29,1.75c4.1,2.79,7.62,5.22,11.17,7.6,3.65,2.45,7.34,4.84,11.74,7.74Z"/>
      <path class="cls-6" d="M153.85,46.14c-.13.03-.29.09-.46.23-.16.13-.26.29-.32.42.14-.03.29-.09.45-.21.18-.14.28-.3.33-.44Z"/>
      <g>
        <path class="cls-6" d="M150.55,80.87v4.58s0,0,0,0v-5.53s-.02,0-.03-.01c.02.31.02.62.02.96Z"/>
        <path class="cls-6" d="M153.89,73.43c.11-.01.26-.06.4-.17.17-.13.24-.3.26-.4-.1,0-.25.06-.4.18-.14.12-.23.27-.26.39Z"/>
        <path class="cls-6" d="M143.32,68.5c-.08,1.13-.12,2.29-.12,3.45v.53c.25.42.49.84.75,1.26.4-.02.82,0,1.27.07,1.6.29,3.11,1.25,4.1,2.54.11-.19.25-.38.43-.52.45-.38,1.05-.54,1.64-.43.05,0,.1.02.15.03-.15-.18-.29-.37-.41-.57-2.61-2.42-5.35-4.95-8.09-7.48.2.34.31.73.28,1.14Z"/>
        <path class="cls-6" d="M40.63,80.27c.11-.12.22-.23.34-.34-.11-.1-.2-.22-.3-.33-.02,0-.03.01-.05.02,0,.08,0,.16,0,.25v.41Z"/>
        <path class="cls-6" d="M145.95,101.49c4.33.51,8.21-.6,11.41-3.42-.64-.34-1.06-1.01-1.06-1.76v-.62c0-.59.26-1.16.72-1.54.28-.23.62-.38.97-.44,0-.15,0-.31,0-.47v-1.37c-4.06,1.33-7.75,2.53-11.52,3.76.93-2.07,1.53-4.17,2.98-5.68-1.91-.38-3.82-.73-5.73-1.07-.26-.05-.51-.14-.72-.28-.1.02-.2.03-.31.04.77,1.72,1.57,3.5,2.4,5.37-.85,1.39-2.27,3.73-4.06,6.67-.92-8.79-1.75-10.38-7.46-13,1.39,6.2,2.59,11.54,3.91,17.44-1.46,1.39-3.44,3.29-5.43,5.18.98-5.42.55-9.97-3.87-13.74-1,3.91-1.78,7.83-1.55,11.68.37,6.38-1.02,8.32-8.06,9.28,3.53-4.57,4.53-9.32.81-14.61-2.16,4.47-3.47,9.15-4.96,13.77-.44,1.36-1.05,3.3-2.09,3.72-2.68,1.08-5.65,1.46-8.5,2.12,4.58-4.3,7.13-8.88,6.14-15.66-5.68,3.26-9,7.75-10.54,13.25-1.32,4.74-5.78,5.32-8.52,5.27-.03,0-.06,0-.09,0-.03,0-.06,0-.09,0-2.74.05-7.2-.53-8.52-5.27-1.53-5.49-4.86-9.99-10.54-13.25-.99,6.78,1.55,11.36,6.14,15.66-2.85-.66-5.82-1.04-8.5-2.12-1.04-.42-1.65-2.36-2.09-3.72-1.48-4.62-2.8-9.3-4.96-13.77-3.72,5.28-2.72,10.03.81,14.61-7.05-.96-8.43-2.9-8.06-9.28.22-3.86-.55-7.77-1.55-11.68-4.41,3.77-4.84,8.32-3.87,13.74-1.99-1.9-3.97-3.79-5.43-5.18,1.32-5.9,2.52-11.24,3.91-17.44-5.71,2.62-6.54,4.21-7.46,13-1.79-2.95-3.21-5.28-4.06-6.67.83-1.85,1.61-3.6,2.37-5.29-1.46.25-2.93.51-4.39.78-.26.05-.52.04-.78,0-.21.14-.46.24-.72.29-.28.05-.56.12-.83.17,1.44,1.51,2.04,3.61,2.97,5.68-3.99-1.3-7.89-2.58-12.25-4-.89.57-1.73.95-2.69,1.25,3.67,6.61,9.07,9.36,15.46,8.61q3.43-.41,7.87,6.04c-5.4-.41-11.11-.84-16.81-1.28,5.6,8.09,11.83,9.61,19.83,6.79,1.41-.5,3.52.47,5.12,1.18,1.64.72,3.06,1.96,4.59,2.98-6.09,1.11-12.13,2.21-18.18,3.31,7.56,6.76,15.04,6.57,21.77,1.46,1.39-1.06,4.05-.79,6.06-.58,1.89.2,3.7,1.14,5.19,1.63-5.68,2.81-11.41,5.65-18.06,8.93,7.57,4.06,16.94,2.19,21.28-3.09,4.59-5.59,7.41-5.93,13.43-1.85-1.71,3.2-3.41,6.39-5.11,9.59.37.21.74.42,1.11.63,2.1-3,4.2-6,6.84-9.77,0,0,.2-.18.42,0,2.64,3.77,4.74,6.77,6.84,9.77.37-.21.74-.42,1.11-.63-1.7-3.19-3.4-6.38-5.11-9.59,6.01-4.08,8.84-3.74,13.43,1.85,4.34,5.28,13.71,7.15,21.28,3.09-6.64-3.29-12.37-6.12-18.06-8.93,1.49-.49,3.3-1.43,5.19-1.63,2.01-.21,4.67-.47,6.06.58,6.73,5.11,14.21,5.3,21.77-1.46-6.04-1.1-12.09-2.2-18.18-3.31,1.53-1.02,2.95-2.26,4.59-2.98,1.6-.71,3.71-1.67,5.12-1.18,8,2.82,14.23,1.3,19.83-6.79-5.71.43-11.41.87-16.81,1.28q4.44-6.45,7.87-6.04Z"/>
        <path class="cls-6" d="M29.74,68.32c-.75.19-1.5.38-2.25.58,0,.14-.02.29-.03.43,1.2-.34,1.63-.56,2.29-1.01Z"/>
        <path class="cls-6" d="M33.29,73.61v.91c.4-.17.83-.3,1.29-.38.96-.18,1.89-.11,2.73.16,1.13-1.81,2.15-3.72,3.29-5.52-.62-.53-1.23-1.05-1.85-1.58-1.83,1.69-3.65,3.37-5.44,5.03-.01.46-.02.93-.02,1.39Z"/>
        <path class="cls-6" d="M22.72,70.99c.33-.41.82-.67,1.35-.72l.58-.06c.18-.02.37,0,.54.03.25-.27.57-.47.94-.56.32-.08.6-.16.86-.23-.14-.11-.27-.22-.41-.33-.49.13-.98.26-1.47.39-.22.06-.44.09-.66.09-.54,0-1.08-.18-1.52-.51-.62-.47-.98-1.21-.98-1.99v-.81c0-.27.05-.54.13-.79-1.86-1.5-3.74-3-5.61-4.51l-1.08,1.19c.68,3.17,1.66,6.42,3.62,8.77,1.32-.24,2.56-.24,3.7.04Z"/>
        <path class="cls-6" d="M154.16,69.47c-.01-.19-.03-.39-.04-.58-1.06-.28-2.11-.55-3.17-.81.53.61.86,1.26,1.05,1.92.62-.42,1.37-.6,2.15-.53Z"/>
        <path class="cls-6" d="M164.66,75.38c-1.17.67-2.33,1.35-3.5,2.02.56.07.96.07,1.6.06h.04c.56,0,1.09.23,1.47.64l.29.32s.03.03.04.04c.18-.03.37-.05.56-.06.22-.48.43-.96.63-1.45-.37-.52-.75-1.04-1.12-1.57Z"/>
        <path class="cls-6" d="M154.59,69.52c1.84.39,3.27,2.17,3.27,4.05,0,.15-.03.3-.05.45.17-.06.34-.12.52-.18,5.06-1.6,6.81-6.73,7.87-11.64l-1.08-1.19c-1.88,1.51-3.75,3.02-5.61,4.51.08.25.13.52.13.79v.81c0,.78-.36,1.51-.98,1.99-.44.34-.97.51-1.52.51-.22,0-.44-.03-.66-.09-.49-.13-.98-.26-1.48-.39-.16.13-.32.25-.47.38.02,0,.04,0,.06,0Z"/>
      </g>
    </g>
    <g>
      <g>
        <path class="cls-1" d="M108.73,151.4c-1.12-2.99-3.11-4.94-6.1-6.03,2.88-1.2,5.05-2.98,5.93-6.37.93,1.62,1.44,3.07,2.41,4.04,1,.99,2.46,1.52,3.97,2.4-3.07,1.05-5.1,2.94-6.22,5.95Z"/>
        <path class="cls-1" d="M72.76,151.4c-1.12-2.99-3.11-4.94-6.1-6.03,2.88-1.2,5.05-2.98,5.93-6.37.93,1.62,1.44,3.07,2.41,4.04,1,.99,2.46,1.52,3.97,2.4-3.07,1.05-5.1,2.94-6.22,5.95Z"/>
        <path class="cls-1" d="M90.74,149.63c-1.12-2.99-3.11-4.94-6.1-6.03,2.88-1.2,5.05-2.98,5.93-6.37.93,1.62,1.44,3.07,2.41,4.04,1,.99,2.46,1.52,3.97,2.4-3.07,1.05-5.1,2.94-6.22,5.95Z"/>
      </g>
      <g>
        <g>
          <path class="cls-1" d="M41.82,132.28c1.11,2.78,2.02,5.06,2.9,7.27-10.28,3.46-20.54,6.91-32.08,10.8,1.54-4.86,2.83-8.9,4.27-13.44-5.42-1.44-10.98-2.91-16.54-4.39-.12-.31-.25-.62-.37-.93,5.67-2.3,11.33-4.6,16.91-6.86-.04-.28-.02-.41-.08-.51-3.4-6.91-3.49-7.1,5.66-9.65,44.98-12.53,90.04-14.21,135.07-.11,8.18,2.56,8.14,2.64,5.43,8.96,5.81,2.55,11.67,5.13,18.61,8.18-6.11,1.51-10.73,2.72-15.41,3.78-3.11.7-3.87,2.04-3.04,4.37,1.2,3.37,2.09,6.8,3.4,11.14-5.2-2.09-9.04-3.81-13.07-5.22-5.17-1.81-10.44-3.45-15.76-4.99-2.46-.71-3.4-1.55-2.24-3.55.95-1.65,1.52-3.43,2.47-5.64-32.24-6.44-63.88-8.48-96.13.81ZM153.9,135.15c3.18-5.63,6.43-11.37,9.64-17.05-29.38-16.24-122.6-15.85-147.78.57,3.21,5.43,6.44,10.9,9.92,16.79,42.8-14.1,85.25-13.93,128.22-.31ZM164.54,148.54c-1.19-3.69-2.15-6.77-3.17-9.84-.66-1.98.09-3.27,2.74-3.95,4.33-1.1,8.61-2.32,13.97-3.77-5.84-2.37-10.85-4.39-16.27-6.59-1.7,3.02-3.46,5.44-4.43,8.03-1.44,3.86-4.37,5.66-9.64,5.67-2.82,0-5.63.62-9.43,1.07,9.2,3.29,17.26,6.17,26.23,9.37ZM3.22,131.25c.07.28.15.56.22.84,3.67.91,7.3,1.91,11.01,2.72,3.53.77,4.88,1.98,3.25,4.92-1.46,2.64-2.1,5.55-3.34,9.01,9.34-3.29,17.61-6.2,27.01-9.5-4.52-.77-7.93-1.6-11.41-1.88-4.01-.32-6.56-1.49-7.82-4.58-.96-2.36-2.66-4.54-4.18-7.05-5.16,1.93-9.95,3.73-14.74,5.52ZM139.51,131.77c-.97,2.36-1.74,4.22-2.66,6.46,5.22-.63,9.69-1.17,14.16-1.72.09-.25.17-.51.26-.76-3.71-1.26-7.43-2.52-11.75-3.99ZM28.86,135.22c.03.25.07.49.1.74,4.4.75,8.8,1.5,13.6,2.32-.87-2.07-1.57-3.74-2.35-5.62-4.1.93-7.72,1.75-11.35,2.57Z"/>
          <path class="cls-4" d="M153.9,135.15c-42.98-13.62-85.43-13.79-128.22.31-3.48-5.89-6.71-11.37-9.92-16.79,25.18-16.42,118.4-16.81,147.78-.57-3.21,5.68-6.46,11.42-9.64,17.05Z"/>
          <path class="cls-4" d="M164.54,148.54c-8.97-3.21-17.03-6.09-26.23-9.37,3.8-.45,6.61-1.06,9.43-1.07,5.27-.01,8.2-1.81,9.64-5.67.97-2.59,2.73-5.02,4.43-8.03,5.43,2.2,10.43,4.23,16.27,6.59-5.36,1.45-9.65,2.67-13.97,3.77-2.65.68-3.4,1.97-2.74,3.95,1.02,3.07,1.99,6.15,3.17,9.84Z"/>
          <path class="cls-4" d="M3.22,131.25c4.79-1.79,9.58-3.59,14.74-5.52,1.52,2.51,3.22,4.69,4.18,7.05,1.26,3.09,3.81,4.26,7.82,4.58,3.48.28,6.89,1.11,11.41,1.88-9.4,3.31-17.67,6.22-27.01,9.5,1.24-3.46,1.87-6.36,3.34-9.01,1.63-2.94.29-4.15-3.25-4.92-3.71-.81-7.34-1.81-11.01-2.72-.07-.28-.15-.56-.22-.84Z"/>
          <path class="cls-7" d="M139.51,131.77c4.32,1.47,8.04,2.73,11.75,3.99-.09.25-.17.51-.26.76-4.47.54-8.94,1.08-14.16,1.72.92-2.24,1.69-4.1,2.66-6.46Z"/>
          <path class="cls-7" d="M28.86,135.22c3.63-.82,7.25-1.64,11.35-2.57.79,1.88,1.49,3.55,2.35,5.62-4.8-.82-9.2-1.57-13.6-2.32-.03-.25-.07-.49-.1-.74Z"/>
        </g>
        <g>
          <g>
            <path class="cls-2" d="M72.68,120.9c1.15-1.24,2.32-2.58,3.14-3.6,1.24-1.54,1.73-2.8,1.6-4.27-.14-1.58-1.17-2.5-2.68-2.35-1.14.12-2.15,1.11-2.05,1.99.03.27.2.38.61.36.87-.02,1.28.24,1.34.8.06.57-.36,1.04-1.03,1.11-.8.09-1.43-.47-1.55-1.41-.08-.67.1-1.42.5-2.03.62-.91,1.69-1.49,3.11-1.63,2.34-.23,4.03.92,4.16,2.77.06.8-.16,1.55-.66,2.25-.56.79-1.07,1.24-2.85,2.86-.84.76-1.59,1.6-2.28,2.4,1.62-.19,3.25-.35,4.87-.49.49-.04.76-.29.84-.74.06-.29.07-.63.06-1.32.16-.01.32-.02.48-.04.02,1.27.04,2.53.07,3.8-2.51.19-5.02.44-7.52.75-.05-.41-.1-.83-.16-1.24Z"/>
            <path class="cls-2" d="M86.26,121.24c-2.31.08-4.28-2.44-4.51-5.81-.23-3.37,1.57-6.14,4.1-6.22,2.55-.09,4.53,2.52,4.53,5.91,0,3.41-1.8,6.04-4.12,6.12ZM84.78,119.7c.27.89.79,1.18,1.48,1.16.79-.03,1.21-.44,1.42-1.34.18-.76.27-2.39.23-4.36-.04-2-.21-3.66-.46-4.38-.3-.89-.81-1.2-1.59-1.17-.85.03-1.3.45-1.49,1.28-.19.84-.25,2.33-.16,4.37.09,2.05.34,3.72.56,4.45Z"/>
            <path class="cls-2" d="M91.81,119.74c1.3-1.08,2.63-2.26,3.57-3.16,1.43-1.37,2.08-2.56,2.13-4.03.07-1.58-.84-2.63-2.35-2.67-1.14-.03-2.27.82-2.28,1.7,0,.27.15.4.56.44.87.09,1.24.41,1.22.97-.01.58-.49.98-1.17.97-.81-.01-1.36-.65-1.35-1.6,0-.67.28-1.39.75-1.95.73-.82,1.87-1.26,3.29-1.21,2.35.07,3.87,1.44,3.76,3.29-.05.8-.36,1.52-.95,2.15-.65.71-1.22,1.09-3.2,2.46-.93.64-1.78,1.38-2.57,2.09,1.63.02,3.26.07,4.89.15.49.02.79-.18.93-.63.1-.28.15-.62.23-1.3.16,0,.32.02.48.03-.14,1.26-.28,2.52-.42,3.78-2.51-.14-5.03-.21-7.54-.22,0-.42,0-.83,0-1.25Z"/>
            <path class="cls-2" d="M107.28,110.07c.46.05.92.1,1.38.15-.3,2.68-.59,5.36-.89,8.03.42.05.84.09,1.26.15.51.06.58-.03.67-.76.02-.13.03-.26.05-.4.15.02.31.04.46.06-.13,1.03-.26,2.06-.39,3.1-.15-.02-.3-.04-.45-.06.02-.2.05-.39.07-.59.07-.67.03-.75-.48-.82-.42-.05-.84-.1-1.26-.14-.1.88-.2,1.76-.29,2.64.46.06.92.12,1.37.19-.02.14-.03.28-.05.41-1.65-.2-3.29-.37-4.94-.51.01-.14.02-.28.04-.42.46.03.92.06,1.38.09.08-.88.17-1.76.25-2.65-1.52-.15-3.04-.27-4.56-.37.01-.19.02-.37.04-.56,2.01-2.56,4.13-5.09,6.33-7.57ZM101.6,117.69c1.31.09,2.62.2,3.92.32.18-1.92.37-3.85.55-5.77-1.54,1.79-3.03,3.61-4.48,5.44Z"/>
          </g>
          <g>
            <path class="cls-2" d="M72.68,120.9c1.15-1.24,2.32-2.58,3.14-3.6,1.24-1.54,1.73-2.8,1.6-4.27-.14-1.58-1.17-2.5-2.68-2.35-1.14.12-2.15,1.11-2.05,1.99.03.27.2.38.61.36.87-.02,1.28.24,1.34.8.06.57-.36,1.04-1.03,1.11-.8.09-1.43-.47-1.55-1.41-.08-.67.1-1.42.5-2.03.62-.91,1.69-1.49,3.11-1.63,2.34-.23,4.03.92,4.16,2.77.06.8-.16,1.55-.66,2.25-.56.79-1.07,1.24-2.85,2.86-.84.76-1.59,1.6-2.28,2.4,1.62-.19,3.25-.35,4.87-.49.49-.04.76-.29.84-.74.06-.29.07-.63.06-1.32.16-.01.32-.02.48-.04.02,1.27.04,2.53.07,3.8-2.51.19-5.02.44-7.52.75-.05-.41-.1-.83-.16-1.24Z"/>
            <path class="cls-2" d="M86.26,121.24c-2.31.08-4.28-2.44-4.51-5.81-.23-3.37,1.57-6.14,4.1-6.22,2.55-.09,4.53,2.52,4.53,5.91,0,3.41-1.8,6.04-4.12,6.12ZM84.78,119.7c.27.89.79,1.18,1.48,1.16.79-.03,1.21-.44,1.42-1.34.18-.76.27-2.39.23-4.36-.04-2-.21-3.66-.46-4.38-.3-.89-.81-1.2-1.59-1.17-.85.03-1.3.45-1.49,1.28-.19.84-.25,2.33-.16,4.37.09,2.05.34,3.72.56,4.45Z"/>
            <path class="cls-2" d="M91.81,119.74c1.3-1.08,2.63-2.26,3.57-3.16,1.43-1.37,2.08-2.56,2.13-4.03.07-1.58-.84-2.63-2.35-2.67-1.14-.03-2.27.82-2.28,1.7,0,.27.15.4.56.44.87.09,1.24.41,1.22.97-.01.58-.49.98-1.17.97-.81-.01-1.36-.65-1.35-1.6,0-.67.28-1.39.75-1.95.73-.82,1.87-1.26,3.29-1.21,2.35.07,3.87,1.44,3.76,3.29-.05.8-.36,1.52-.95,2.15-.65.71-1.22,1.09-3.2,2.46-.93.64-1.78,1.38-2.57,2.09,1.63.02,3.26.07,4.89.15.49.02.79-.18.93-.63.1-.28.15-.62.23-1.3.16,0,.32.02.48.03-.14,1.26-.28,2.52-.42,3.78-2.51-.14-5.03-.21-7.54-.22,0-.42,0-.83,0-1.25Z"/>
            <path class="cls-2" d="M107.28,110.07c.46.05.92.1,1.38.15-.3,2.68-.59,5.36-.89,8.03.42.05.84.09,1.26.15.51.06.58-.03.67-.76.02-.13.03-.26.05-.4.15.02.31.04.46.06-.13,1.03-.26,2.06-.39,3.1-.15-.02-.3-.04-.45-.06.02-.2.05-.39.07-.59.07-.67.03-.75-.48-.82-.42-.05-.84-.1-1.26-.14-.1.88-.2,1.76-.29,2.64.46.06.92.12,1.37.19-.02.14-.03.28-.05.41-1.65-.2-3.29-.37-4.94-.51.01-.14.02-.28.04-.42.46.03.92.06,1.38.09.08-.88.17-1.76.25-2.65-1.52-.15-3.04-.27-4.56-.37.01-.19.02-.37.04-.56,2.01-2.56,4.13-5.09,6.33-7.57ZM101.6,117.69c1.31.09,2.62.2,3.92.32.18-1.92.37-3.85.55-5.77-1.54,1.79-3.03,3.61-4.48,5.44Z"/>
          </g>
        </g>
      </g>
    </g>
    <g>
      <path class="cls-5" d="M24.46,66.3c.66-.19,1.32-.38,1.98-.56.8-.21,1.12-.5,1.12-.98,0-6.41.02-12.82.03-19.24-.71-.02-1.09.01-2.89.5v-.78c1.31-.36,2.61-.7,3.92-1.04,1.3-.33,2.46-.65,3.88-1.05,1.57,4.6,3.14,9.21,4.72,13.83,1.07-3.18,2.14-6.36,3.22-9.53.39-1.1.78-2.32,1.97-6.42.81-.1,1.55-.24,2.21-.36,1.8-.34,3.61-.65,5.42-.95,0,.27,0,.54,0,.81-1.02.19-2.04.38-3.05.58.01,6.7.02,13.4.03,20.09,1.04-.17,2.08-.34,3.11-.5v.81c-3.48.57-6.94,1.21-10.4,1.93v-.81c1.05-.23,2.11-.45,3.16-.66,0-6.53-.02-13.06-.03-19.58-.6,2.13-1.28,4.45-1.79,6.02-1.27,3.94-2.54,7.88-3.81,11.84-.27.84-.51,1.76-1.1,3.96-.3.07-.59.13-.89.2-.65-2.07-.95-3.05-1.31-4.02-1.17-3.28-2.33-6.55-3.5-9.81-.5-1.44-1.12-3.2-1.86-5.32v19.23c0,.51.27.62,1.01.44.69-.16,1.38-.32,2.07-.48v.81c-2.41.58-4.81,1.2-7.21,1.86v-.81Z"/>
      <path class="cls-5" d="M66.36,56.06c-1.57,2.92-3.29,4.11-6.33,4.48-4.3.53-7.39-1.97-7.39-6.18,0-4.14,3.21-7.86,7.39-8.37,2.05-.25,3.73.34,5,1.65.93.98,1.51,2.19,1.51,3.18,0,.24-.09.49-.27.63-.18.14-.78.22-3.8.55-1.89.21-3.77.45-5.66.71v.6c0,4.53,1.35,6.34,4.39,5.98,1.96-.23,3.01-1.03,4.49-3.55.22.11.44.22.66.32ZM62.8,51.21c-.06-3.35-.87-4.71-2.71-4.48-1.9.23-2.98,1.98-3.22,5.22,1.97-.27,3.95-.51,5.93-.74Z"/>
      <path class="cls-5" d="M68.2,58.41c.7-.07,1.41-.14,2.11-.21,0-4,0-8,0-12-.64.06-1.29.13-1.93.2,0-.26,0-.52,0-.78,2.93-.32,4.05-.54,5.62-1.1.13.07.26.14.39.21-.06,1.11-.12,2.14-.12,3.34,0,3.28,0,6.56,0,9.84.64-.03,1.29-.06,1.93-.09v.81c-2.67.16-5.34.35-8,.59v-.81ZM72.37,37.13c1.18-.09,2.15.84,2.15,2.01,0,1.14-.91,2.07-2.12,2.16-1.18.09-2.08-.74-2.08-1.91,0-1.17.88-2.17,2.05-2.26Z"/>
      <path class="cls-5" d="M86.58,37.2v-.75c3.48-.17,4.12-.27,5.72-1.11.16.1.32.2.48.3-.06,1.59-.12,3.33-.12,5.19,0,5.53,0,11.06,0,16.59.65,0,1.29.01,1.94.02v.75c-.19,0-.38,0-.58,0-1.88-.02-2.82.09-4.72.55-.13-.1-.26-.2-.39-.3-.04-.7-.08-1.4-.12-2.1-.33.45-.57.7-.76.88-.91.91-2.27,1.47-3.72,1.51-3.51.09-6.05-2.68-6.05-6.7,0-4.32,2.63-7.73,6.17-7.82,1.12-.03,2.21.34,3,.99.42.38.82.8,1.33,1.73v-9.78c-.73.02-1.45.03-2.18.06ZM88.76,49.72c0-1.44-.21-2.1-.73-2.78-.54-.68-1.33-1.06-2.21-1.05-.91.02-1.63.43-2.15,1.16-.64.89-1.09,2.79-1.09,4.56,0,3.66,1.15,5.6,3.3,5.55,1.39-.03,2.39-.88,2.88-2.05v-5.4Z"/>
      <path class="cls-5" d="M103.95,47.56c0-1.44-.79-2.29-2.15-2.35-1.15-.05-2.15.4-2.15.94,0,.21.06.33.33.67.33.4.42.59.42.98,0,.87-.61,1.48-1.45,1.45-.94-.03-1.63-.8-1.63-1.76,0-1.89,2.39-3.22,5.63-3.06,1.78.09,3.02.61,3.81,1.62.57.73.82,1.67.82,3.29v7.2c0,.57.33,1.1.88,1.14.42.03.6-.14,1.33-1.16.21.13.42.25.63.38-1,1.66-1.99,2.25-3.56,2.15-.94-.06-1.84-.44-2.27-1-.21-.25-.42-.8-.51-1.2-1.39,1.43-2.51,1.98-4.14,1.92-2.21-.08-3.75-1.49-3.75-3.38,0-1.95,1.6-3.48,4.33-4.07,1.06-.2,1.66-.26,3.45-.38v-3.36ZM103.92,51.67c-1.24.12-1.78.24-2.39.46-1.36.48-2.09,1.42-2.09,2.74,0,1.41.82,2.34,2.06,2.39,1.15.05,1.82-.46,2.42-1.45,0-1.38,0-2.76,0-4.14Z"/>
      <path class="cls-5" d="M111.51,58.24c.7.05,1.41.1,2.11.15v-12c-.64-.05-1.29-.09-1.93-.14v-.78c2.93.19,4.04.16,5.61-.13.13.09.26.19.39.28-.06,1.1-.12,2.12-.12,3.32,0,3.28,0,6.56,0,9.84.64.08,1.29.16,1.93.24v.81c-2.66-.31-5.32-.57-7.99-.79,0-.27,0-.54,0-.81ZM115.67,37.68c1.18.12,2.14,1.21,2.14,2.38,0,1.14-.9,1.91-2.11,1.79-1.18-.12-2.08-1.1-2.08-2.27,0-1.17.88-2.02,2.05-1.9Z"/>
      <path class="cls-5" d="M121.66,59.86c.18-.76.24-1.32.24-2.85,0-.54-.03-1.11-.03-1.65.26.03.52.07.78.1.06,1.24.3,1.93.99,2.89.84,1.19,1.92,1.88,3.22,2.06,1.68.24,2.94-.49,2.94-1.78,0-1.05-.72-1.74-2.76-2.61-1.8-.74-3.01-1.41-3.67-2.07-.81-.77-1.29-1.99-1.29-3.26,0-2.64,2.05-4.37,4.75-3.98,1.08.16,1.65.42,3.39,1.53.2-.2.4-.4.6-.59.13.06.26.12.39.18-.09,1.07-.12,1.63-.12,2.26,0,.57.03,1.17.03,1.74-.23,0-.46-.01-.69-.02-.18-1.26-.36-1.86-.81-2.53-.6-.9-1.68-1.61-2.79-1.77-1.5-.22-2.58.51-2.58,1.68,0,1.23.69,1.85,3.21,2.97,1.95.89,2.58,1.26,3.36,2.02.78.79,1.29,2.01,1.29,3.24,0,2.73-2.16,4.22-5.28,3.77-1.56-.22-2.31-.57-4-1.84-.22.23-.44.46-.66.7-.17-.07-.34-.14-.51-.21Z"/>
      <path class="cls-5" d="M141.89,52.46c0-1.44-.77-2.41-2.12-2.68-1.13-.23-2.12.07-2.12.61,0,.21.06.34.33.72.33.45.42.65.42,1.04,0,.87-.6,1.38-1.43,1.23-.93-.17-1.61-1.05-1.61-2.01,0-1.89,2.36-2.85,5.55-2.21,1.76.36,2.98,1.07,3.75,2.2.57.81.8,1.8.8,3.42,0,2.4,0,4.8,0,7.2,0,.57.33,1.15.86,1.27.42.09.59-.04,1.31-.96.21.16.42.32.62.48-.98,1.51-1.96,1.94-3.5,1.6-.92-.2-1.81-.72-2.23-1.35-.21-.28-.42-.87-.51-1.28-1.37,1.22-2.47,1.59-4.09,1.29-2.18-.42-3.71-2.06-3.71-3.95,0-1.95,1.59-3.24,4.27-3.41,1.05-.04,1.64-.01,3.4.14,0-1.12,0-2.24,0-3.36ZM141.86,56.57c-1.22-.07-1.76-.03-2.36.09-1.34.28-2.06,1.1-2.06,2.42,0,1.41.81,2.46,2.03,2.7,1.13.22,1.79-.18,2.39-1.08v-4.14Z"/>
      <path class="cls-5" d="M149.32,64.29c.69.16,1.38.31,2.07.48v-12c-.63-.15-1.26-.29-1.9-.43,0-.26,0-.52,0-.78,2.87.63,3.97.78,5.5.73.13.11.26.23.38.34-.06,1.09-.12,2.1-.12,3.3v9.84c.63.18,1.26.36,1.89.54v.81c-2.6-.71-5.21-1.38-7.83-2.01v-.81ZM153.4,44.37c1.15.3,2.1,1.54,2.1,2.71,0,1.14-.88,1.77-2.07,1.47-1.15-.3-2.04-1.42-2.04-2.59,0-1.17.86-1.89,2.01-1.59Z"/>
    </g>
    <g>
      <path class="cls-5" d="M24.26,72.26c.19-.02.38-.04.57-.06-.1,1.05-.17,2.17-.17,3.25v2.59c-.24.06-.48.12-.71.18-.07-1.83-.29-2.7-.88-3.55-.69-.95-2.19-1.4-3.61-1.05-1.57.37-3.27,1.79-4.1,3.34-.83,1.58-1.25,3.83-1.25,6.49,0,2.42.38,4.15,1.18,5.29.88,1.22,2.67,1.8,4.29,1.41,1.45-.35,2.97-1.54,3.68-2.87.59-1.14.88-2.19,1.17-4.22.21-.05.41-.09.62-.14-.1,1.75-.14,2.98-.14,3.73,0,.72.02,1.6.05,2.37-.14.09-.29.18-.43.26-.27-.24-.54-.49-.81-.73-2.02,1.63-3.06,2.19-4.91,2.64-5.12,1.24-8.63-1.39-8.63-6.63,0-5.32,3.67-10.34,8.6-11.53,1.92-.47,3.46-.32,4.89.44.2-.4.4-.81.59-1.21Z"/>
      <path class="cls-5" d="M26.54,88.42c.54-.12,1.08-.25,1.62-.37v-16.18c-.51.11-1.02.23-1.52.35v-.6c2.6-.67,3.17-.9,4.41-1.78.12.05.24.1.36.14-.07,1.09-.12,2.3-.12,3.62v5.09c1.26-1.5,2.27-2.34,3.66-2.6,1.36-.25,2.66.24,3.25,1.19.31.52.43,1.17.43,2.56v6.19c.49-.08.97-.15,1.46-.23v.65c-1.99.33-3.98.69-5.96,1.06v-.65c.45-.09.89-.18,1.34-.27v-7.27c0-1.06-.1-1.37-.43-1.67-.24-.17-.6-.25-.98-.18-.67.13-1.41.58-1.98,1.17-.48.48-.79.97-.79,1.31v7.44c.45-.08.89-.16,1.34-.24v.65c-2.03.39-4.06.81-6.08,1.24v-.65Z"/>
      <path class="cls-5" d="M47.19,76.57c0-1.15-.62-1.71-1.71-1.55-.91.14-1.7.64-1.7,1.08,0,.17.05.26.26.49.26.27.34.4.34.72,0,.7-.48,1.27-1.15,1.38-.74.12-1.3-.39-1.3-1.16,0-1.51,1.89-2.93,4.46-3.31,1.42-.21,2.4.02,3.03.7.46.49.65,1.21.65,2.5,0,1.92,0,3.84,0,5.76,0,.46.26.83.7.77.34-.04.48-.21,1.06-1.15.17.07.34.13.51.2-.79,1.49-1.59,2.12-2.84,2.29-.75.1-1.47-.06-1.8-.44-.17-.17-.34-.58-.41-.88-1.11,1.36-1.99,1.97-3.29,2.17-1.75.27-2.97-.63-2.97-2.14,0-1.56,1.27-3.02,3.43-3.91.84-.32,1.32-.47,2.74-.84v-2.69ZM47.17,79.87c-.99.29-1.42.47-1.9.74-1.08.6-1.66,1.45-1.66,2.51,0,1.13.65,1.75,1.63,1.6.91-.14,1.44-.65,1.92-1.53v-3.31Z"/>
      <path class="cls-5" d="M53.2,83.9c.56-.08,1.12-.15,1.69-.23v-9.6c-.51.07-1.01.14-1.52.21v-.65c2.22-.27,2.96-.45,4.34-.98.11.07.22.14.34.2,0,.65,0,1.3,0,1.94.48-.53.65-.74.89-.96.92-.86,1.91-1.42,2.9-1.51,1.06-.1,2,.29,2.68,1.17.17.2.27.36.56.79.36-.49.51-.64.68-.82.85-.96,2.32-1.67,3.58-1.76,1.23-.09,2.35.47,2.97,1.48.39.65.51,1.22.51,2.32,0,1.13-.07,2.19-.07,3.51,0,1.02,0,2.05,0,3.07.52-.02,1.03-.04,1.55-.06v.65c-2.07.11-4.14.25-6.21.4,0-.22,0-.43,0-.65.49-.04.98-.09,1.47-.13v-6.94c0-.98-.15-1.53-.53-1.83-.31-.29-.73-.43-1.18-.39-.58.04-1.47.47-2.01.97-.41.42-.6.77-.6,1.23v7.3c.48-.03.97-.06,1.45-.09v.65c-2,.16-3.99.34-5.99.53v-.65c.48-.06.97-.11,1.45-.16v-7.3c0-1.42-.51-2.09-1.5-1.99-.56.06-1.11.42-1.52.9-.58.68-1.04,1.6-1.04,2.01v6.79c.47-.04.95-.08,1.42-.13,0,.22,0,.43,0,.65-2.1.22-4.2.45-6.29.71,0-.22,0-.43,0-.65Z"/>
      <path class="cls-5" d="M75.01,88.54c.55-.05,1.1-.1,1.65-.15.05-1.01.07-1.78.07-2.76v-11.67c0-.65,0-1.15-.05-1.68-.52.02-1.03.05-1.55.08,0-.21,0-.42,0-.62,2.47-.15,2.98-.23,4.48-.68.1.08.19.15.29.23,0,.58-.02,1.15-.02,1.73.46-.52.63-.69.82-.87.77-.7,1.74-1.06,2.81-1.09,2.83-.07,4.94,2.35,4.94,5.63,0,3.41-2.18,5.91-5.16,5.99-1.43.04-2.49-.41-3.27-1.32v6.89c.56,0,1.13,0,1.69.02v.62c-2.24.07-4.47.16-6.7.27v-.62ZM79.92,79.33c0,.98.22,1.48.82,1.84.51.32,1.02.47,1.53.46,1.77-.05,2.71-1.81,2.71-5.1,0-2.81-.87-4.31-2.49-4.26-.97.03-1.77.56-2.57,1.69v5.38Z"/>
      <path class="cls-5" d="M89.94,81.58c.57,0,1.13-.02,1.7-.02v-9.6c-.52,0-1.03.01-1.55.02v-.62c2.35-.05,3.25-.16,4.51-.51.1.07.21.13.31.2-.05.89-.1,1.7-.1,2.66v7.87c.52.01,1.03.03,1.55.05v.65c-2.14-.04-4.28-.06-6.42-.05v-.65ZM93.28,64.84c.94,0,1.72.81,1.72,1.75,0,.91-.73,1.6-1.7,1.59-.94,0-1.67-.73-1.67-1.67,0-.94.7-1.68,1.65-1.67Z"/>
      <path class="cls-5" d="M103.98,82.88c-3.51-.15-6-2.6-6-5.96,0-3.43,2.52-5.81,6.05-5.65,3.56.16,5.95,2.65,5.95,6.12,0,3.46-2.42,5.65-6,5.49ZM104.01,82.28c.8.03,1.48-.37,1.84-1.12.44-.92.68-2.37.68-3.97,0-1.63-.24-3.08-.68-4.07-.36-.79-1.04-1.25-1.84-1.29-1.69-.07-2.57,1.7-2.57,5.13,0,3.41.87,5.24,2.57,5.31Z"/>
      <path class="cls-5" d="M111.51,82.29c.56.03,1.13.06,1.69.1v-9.6c-.5-.03-1-.06-1.5-.08v-.65c1.81.13,3.05.1,4.33-.15.1.09.21.18.31.27v1.7c.99-.93,2.32-1.62,3.57-1.5,1.45.14,2.46.7,3.06,1.51.56.68.72,1.54.72,3.46v6c.51.06,1.03.13,1.54.2v.65c-2.06-.23-4.13-.45-6.2-.64v-.65c.44.03.89.07,1.33.1v-7.08c0-1.15-.12-1.67-.48-1.99-.29-.29-.63-.44-.99-.48-.58-.05-1.28.17-1.84.56-.39.25-.68.49-.68.73v7.9c.42.04.84.09,1.26.13v.65c-2.04-.18-4.09-.34-6.14-.48v-.65Z"/>
      <path class="cls-5" d="M126.59,84.14c.14-.61.19-1.06.19-2.28,0-.43-.02-.89-.02-1.32.21.02.42.05.63.07.05.99.24,1.54.79,2.3.67.95,1.54,1.49,2.58,1.62,1.35.18,2.36-.42,2.36-1.46,0-.84-.58-1.38-2.21-2.05-1.44-.57-2.41-1.1-2.94-1.62-.65-.61-1.04-1.59-1.04-2.6,0-2.11,1.64-3.5,3.8-3.22.87.12,1.32.32,2.72,1.19.16-.16.32-.32.48-.48.1.05.21.09.31.14-.07.85-.1,1.31-.1,1.81,0,.46.02.94.02,1.4-.18,0-.37,0-.55,0-.14-1-.29-1.48-.65-2.01-.48-.72-1.35-1.27-2.24-1.38-1.2-.16-2.07.43-2.07,1.37,0,.99.55,1.48,2.57,2.35,1.56.69,2.07.98,2.69,1.57.62.62,1.03,1.59,1.03,2.57,0,2.19-1.73,3.42-4.23,3.08-1.25-.16-1.85-.43-3.2-1.44-.18.19-.35.37-.53.56-.14-.06-.27-.11-.41-.17Z"/>
      <path class="cls-5" d="M136.43,85.01c.54.07,1.09.15,1.63.23v-16.18c-.51-.07-1.02-.14-1.54-.21,0-.2,0-.4,0-.6,2.62.28,3.19.26,4.44-.16.12.09.24.18.36.28-.07,1.07-.12,2.26-.12,3.58v5.09c1.27-1.03,2.28-1.51,3.66-1.26,1.36.24,2.66,1.21,3.25,2.38.31.63.43,1.33.43,2.72v6.19c.49.1.97.2,1.46.31v.65c-1.98-.39-3.97-.76-5.95-1.11,0-.22,0-.43,0-.65.45.07.89.14,1.34.22v-7.27c0-1.06-.1-1.41-.43-1.83-.24-.26-.6-.47-.98-.54-.67-.12-1.41.07-1.99.45-.48.3-.79.68-.79,1.02v7.44c.45.08.89.17,1.34.25v.65c-2.04-.35-4.07-.68-6.12-.99v-.65Z"/>
      <path class="cls-5" d="M150.89,87.55c.56.1,1.11.21,1.67.32v-9.6c-.51-.1-1.02-.19-1.53-.29v-.62c2.31.42,3.2.49,4.43.4.1.09.21.17.31.26-.05.88-.1,1.68-.09,2.64v7.87c.51.12,1.02.24,1.52.36,0,.22,0,.43,0,.65-2.1-.47-4.2-.91-6.31-1.34v-.65ZM154.18,71.47c.93.2,1.69,1.16,1.69,2.09,0,.91-.71,1.45-1.67,1.25-.93-.2-1.64-1.06-1.64-2,0-.94.69-1.54,1.62-1.34Z"/>
      <path class="cls-5" d="M158.29,95.68c.54.1,1.08.2,1.62.3.05-1,.07-1.76.07-2.74v-11.67c0-.65,0-1.15-.05-1.69-.51-.12-1.01-.23-1.52-.35,0-.21,0-.42,0-.62,2.42.53,2.92.58,4.39.55.09.1.19.21.28.31,0,.57-.02,1.15-.02,1.72.45-.39.62-.52.81-.64.76-.49,1.7-.59,2.75-.32,2.77.71,4.82,3.7,4.82,6.99,0,3.41-2.12,5.32-5.03,4.57-1.4-.36-2.44-1.09-3.2-2.21v6.89c.55.16,1.11.32,1.66.48,0,.21,0,.42,0,.62-2.19-.55-4.38-1.07-6.57-1.56v-.62ZM163.11,87.81c0,.98.21,1.54.81,2.07.5.46.99.75,1.49.88,1.73.44,2.65-1.07,2.65-4.36,0-2.81-.85-4.55-2.44-4.95-.95-.24-1.73.07-2.51.98v5.38Z"/>
    </g>
  </g>
</svg>