<?xml version="1.0" encoding="UTF-8"?>
<svg id="_レイヤー_2" data-name="レイヤー 2" xmlns="http://www.w3.org/2000/svg" xmlns:xlink="http://www.w3.org/1999/xlink" viewBox="0 0 211.35 133.79">
  <defs>
    <style>
      .cls-1 {
        fill: #00a484;
      }

      .cls-1, .cls-2, .cls-3, .cls-4, .cls-5, .cls-6, .cls-7, .cls-8, .cls-9, .cls-10, .cls-11, .cls-12 {
        stroke-width: 0px;
      }

      .cls-2 {
        fill: #6c6595;
      }

      .cls-13 {
        stroke-width: .67px;
      }

      .cls-13, .cls-3, .cls-14, .cls-15, .cls-16 {
        fill: none;
      }

      .cls-13, .cls-14, .cls-15 {
        stroke: #63bdeb;
        stroke-miterlimit: 10;
      }

      .cls-17 {
        clip-path: url(#clippath);
      }

      .cls-14 {
        stroke-width: 1.22px;
      }

      .cls-15 {
        stroke-width: 1.01px;
      }

      .cls-4 {
        fill: url(#Unnamed_Pattern);
      }

      .cls-5 {
        fill: #dd90a4;
      }

      .cls-6 {
        fill: #e6aebc;
      }

      .cls-7 {
        fill: #efcad2;
      }

      .cls-8 {
        fill: #d4718f;
      }

      .cls-9 {
        fill: #63bdeb;
      }

      .cls-10 {
        fill: #f0eff5;
      }

      .cls-11 {
        fill: #d06183;
      }

      .cls-12 {
        fill: #fff;
      }

      .cls-16 {
        stroke: #231815;
        stroke-width: 4.8px;
      }
    </style>
    <clipPath id="clippath">
      <rect class="cls-3" width="72" height="72"/>
    </clipPath>
    <pattern id="Unnamed_Pattern" data-name="Unnamed Pattern" x="0" y="0" width="72" height="72" patternTransform="translate(-8063.7 -6881.57) rotate(45) scale(.11 -.11)" patternUnits="userSpaceOnUse" viewBox="0 0 72 72">
      <g>
        <rect class="cls-3" width="72" height="72"/>
        <g class="cls-17">
          <line class="cls-16" x1="71.75" y1="6" x2="144.25" y2="6"/>
          <line class="cls-16" x1="71.75" y1="30" x2="144.25" y2="30"/>
          <line class="cls-16" x1="71.75" y1="54" x2="144.25" y2="54"/>
          <line class="cls-16" x1="71.75" y1="18" x2="144.25" y2="18"/>
          <line class="cls-16" x1="71.75" y1="42" x2="144.25" y2="42"/>
          <line class="cls-16" x1="71.75" y1="66" x2="144.25" y2="66"/>
          <line class="cls-16" x1="-.25" y1="6" x2="72.25" y2="6"/>
          <line class="cls-16" x1="-.25" y1="30" x2="72.25" y2="30"/>
          <line class="cls-16" x1="-.25" y1="54" x2="72.25" y2="54"/>
          <line class="cls-16" x1="-.25" y1="18" x2="72.25" y2="18"/>
          <line class="cls-16" x1="-.25" y1="42" x2="72.25" y2="42"/>
          <line class="cls-16" x1="-.25" y1="66" x2="72.25" y2="66"/>
          <line class="cls-16" x1="-72.25" y1="6" x2=".25" y2="6"/>
          <line class="cls-16" x1="-72.25" y1="30" x2=".25" y2="30"/>
          <line class="cls-16" x1="-72.25" y1="54" x2=".25" y2="54"/>
          <line class="cls-16" x1="-72.25" y1="18" x2=".25" y2="18"/>
          <line class="cls-16" x1="-72.25" y1="42" x2=".25" y2="42"/>
          <line class="cls-16" x1="-72.25" y1="66" x2=".25" y2="66"/>
        </g>
      </g>
    </pattern>
  </defs>
  <g id="_レイヤー_1-2" data-name="レイヤー 1">
    <polygon class="cls-7" points="211.35 0 0 0 0 133.79 162.36 133.79 211.35 107.28 211.35 0"/>
    <polygon class="cls-6" points="151.25 62.92 211.35 62.92 211.35 0 132.16 0 85.46 11.55 86.93 16.6 104.27 16.6 107.75 16.6 107.75 20.08 107.75 56.1 126.62 56.1 151.25 56.1 151.25 62.92"/>
    <polygon class="cls-6" points="197.49 68.54 151.25 97.01 151.25 133.79 162.36 133.79 211.35 101.96 211.35 68.54 197.49 68.54"/>
    <polygon class="cls-6" points="63.67 121.87 63.67 109.59 0 109.59 0 133.79 123.39 133.79 123.39 125.9 63.67 125.9 63.67 121.87"/>
    <g>
      <path class="cls-6" d="M84.36,20.08h0s-.04,0-.04,0l-2.24-7.69-5.48,1.36c-3.42.85-6.9,1.4-10.42,1.65L0,20.1v60.27h25.47v-24.28h8.23v-31.94h8.23v31.94h62.35V20.08h-19.91Z"/>
      <polygon class="cls-4" points="151.25 120.54 200.51 90.43 200.51 68.54 207.43 68.54 207.43 94.02 151.25 127.83 151.25 120.54"/>
      <path class="cls-5" d="M90.38,74.64h-8.06c-.26,0-.38.32-.18.49l9.33,7.84c.13.11.32.02.32-.15v-6.76c0-.78-.63-1.42-1.41-1.42"/>
      <path class="cls-5" d="M79.49,76.24c-.1-.09-.25-.09-.36,0l-9.17,7.73c-.11.09-.04.27.1.27l18.18-.02c.26,0,.38-.32.18-.49l-8.93-7.49Z"/>
      <path class="cls-5" d="M76.3,74.64h-5.73c-.78,0-1.42.64-1.42,1.42v4.63c0,.24.27.36.45.21l6.87-5.77c.2-.17.08-.49-.18-.49"/>
      <path class="cls-5" d="M84.54,72.34h5.85c.78,0,1.42-.64,1.42-1.42v-4.72c0-.24-.27-.36-.45-.21l-6.99,5.87c-.2.17-.08.49.18.49"/>
      <path class="cls-5" d="M70.57,72.34h9c.15,0,.3-.05.42-.15l9.18-7.71c.2-.17.08-.49-.18-.49h-18.42c-.78,0-1.42.64-1.42,1.42v5.51c0,.78.64,1.42,1.42,1.42"/>
      <path class="cls-5" d="M107.2,74.64h-9.65c-.78,0-1.42.64-1.42,1.42v6.74c0,.78.64,1.42,1.42,1.42h9.65c.15,0,.26-.12.26-.26v-9.05c0-.15-.12-.26-.26-.26"/>
      <path class="cls-5" d="M120.8,74.64h-10.55c-.15,0-.26.12-.26.26v9.05c0,.14.12.26.26.26h10.55c.78,0,1.42-.64,1.42-1.42v-6.74c0-.78-.63-1.42-1.42-1.42"/>
      <path class="cls-5" d="M47.8,105.84c-.31,0-.51-.18-.6-.55l-.7-2.81c-.03-.12,0-.25.06-.34.06-.08.15-.14.26-.16.04-.01.09-.02.13-.02.19,0,.34.12.39.31l.67,2.68,1.52-.38s.07-.01.1-.01c.19,0,.34.13.39.32.06.24-.07.45-.29.51l-1.7.42c-.08.02-.16.03-.23.03"/>
      <path class="cls-5" d="M51.71,103.13c-.07,0-.15,0-.23-.01-1.11-.11-1.36-.71-1.46-1.21,0-.05,0-.08,0-.12.02-.19.17-.34.38-.36.04,0,.09,0,.09,0h.04c.2.02.34.15.38.34.05.28.12.51.64.56.04,0,.08,0,.12,0,.19,0,.51-.05.54-.37.02-.2,0-.33-.52-.49l-.36-.11c-.56-.18-1.12-.47-1.04-1.32.05-.47.42-1.02,1.3-1.02.07,0,.15,0,.23.01.98.1,1.24.7,1.31,1.05,0,.03.01.08,0,.13-.02.19-.17.34-.38.36-.02,0-.05,0-.07,0h-.05c-.18-.02-.33-.14-.37-.31-.03-.19-.12-.39-.53-.43-.04,0-.08,0-.12,0-.28,0-.45.11-.47.3-.01.15-.03.29.46.43l.33.1c.64.21,1.23.51,1.14,1.39-.07.67-.61,1.1-1.37,1.1"/>
      <path class="cls-5" d="M145.98,78.03c0,2.82-2.29,5.11-5.11,5.11s-5.12-2.29-5.12-5.11,2.29-5.11,5.12-5.11,5.11,2.29,5.11,5.11"/>
      <path class="cls-5" d="M53.49,61.57h-14.83c-.43,0-.78-.35-.78-.78v-.23c0-.43.35-.78.78-.78h14.83c.43,0,.78.35.78.78v.23c0,.43-.35.78-.78.78"/>
      <path class="cls-5" d="M83.77,61.57h-26.17c-.43,0-.78-.35-.78-.78v-.23c0-.43.35-.78.78-.78h26.17c.43,0,.78.35.78.78v.23c0,.43-.35.78-.78.78"/>
      <path class="cls-5" d="M53.7,69.29h10.81c1,0,1.82.81,1.82,1.82v11.31c0,1-.81,1.82-1.82,1.82h-10.81c-1,0-1.82-.81-1.82-1.82v-11.31c0-1,.81-1.82,1.82-1.82"/>
      <path class="cls-5" d="M45.85,83.37l-3.61-13.56c-.08-.3-.35-.51-.67-.51h-6.65c-.38,0-.69.31-.69.69v13.56c0,.38.31.69.69.69h10.26c.45,0,.78-.43.67-.87"/>
      <polygon class="cls-5" points="48.81 71.47 46.74 71.47 45.28 72.93 45.28 74.99 46.74 76.45 48.81 76.45 50.27 74.99 50.27 72.93 48.81 71.47"/>
      <path class="cls-5" d="M172,68.09h-6.65c-.12,0-.22.1-.22.22v11.77c0,.17.18.27.33.19l6.65-3.92c.07-.04.11-.11.11-.19v-7.84c0-.12-.1-.22-.22-.22"/>
      <path class="cls-5" d="M162.43,68.09h-2.13c-.12,0-.22.1-.22.22v14.75c0,.17.18.27.33.19l2.13-1.26c.07-.04.11-.11.11-.19v-13.49c0-.12-.1-.22-.22-.22"/>
      <path class="cls-5" d="M176.9,68.09h-1.98c-.12,0-.22.1-.22.22v6.12c0,.17.18.27.33.19l1.98-1.17c.07-.04.11-.11.11-.19v-4.95c0-.12-.1-.22-.22-.22"/>
      <path class="cls-5" d="M157.27,69.73l-3.75,2.22c-.07.04-.11.11-.11.19v14.86c0,.17.18.27.33.19l3.75-2.21c.07-.04.11-.11.11-.19v-14.87c0-.17-.18-.27-.33-.19"/>
      <path class="cls-5" d="M179.61,68.31v3.23c0,.17.18.27.33.19l5.48-3.23c.19-.11.11-.41-.11-.41h-5.48c-.12,0-.22.1-.22.22"/>
      <rect class="cls-5" x="102.91" y="95.91" width="19.31" height="2.74"/>
      <polygon class="cls-5" points="73.8 95.91 69.56 92.82 69.56 95.91 69.56 98.64 79.21 98.64 79.21 95.91 73.8 95.91"/>
      <polyline class="cls-5" points="92.41 93.1 75.59 93.1 68.8 88.16 92.41 88.16"/>
      <polygon class="cls-5" points="51.97 94 51.97 88.16 65.25 88.16 51.97 94"/>
      <polygon class="cls-5" points="46.39 90.31 34.23 90.31 34.23 99 47.64 99 48.76 97.71 46.39 90.31"/>
      <rect class="cls-11" x="6.2" y="109.59" width="57.47" height="19.16"/>
      <polygon class="cls-11" points="69.15 98.64 69.15 120.54 126.62 120.54 126.62 98.64 99.25 98.64 99.25 95.91 80.09 95.91 80.09 98.64 69.15 98.64"/>
      <polygon class="cls-11" points="191.56 68.54 151.25 93.17 151.25 120.54 200.51 90.43 200.51 68.54 191.56 68.54"/>
      <polygon class="cls-11" points="107.46 11.07 107.46 62.92 153.99 62.92 153.99 47.23 151.25 47.23 145.78 41.75 137.57 41.75 137.57 11.07 107.46 11.07"/>
      <rect class="cls-11" x="37.01" y="24.15" width="25.51" height="8.88"/>
      <rect class="cls-11" x="40.52" y="43.89" width="13.75" height="12.81"/>
      <polygon class="cls-11" points="33.7 61.53 33.7 43.89 10.45 43.89 10.45 60.39 10.45 61.53 10.45 66.37 10.45 80.38 30.26 80.38 30.26 66.37 27.44 66.37 27.44 61.53 33.7 61.53"/>
      <rect class="cls-11" x="13.02" y="80.38" width="2.32" height="29.21"/>
      <rect class="cls-8" x="191.7" y="36.74" width="16.05" height="26.18"/>
      <rect class="cls-11" x="126.62" y="125.84" width="8.86" height="7.89"/>
      <rect class="cls-8" x="11.02" y="29.37" width="24.71" height="9.09"/>
      <rect class="cls-8" x="12.41" y="21.27" width="9.1" height="6.62"/>
      <rect class="cls-11" x="23.06" y="21.27" width="12.67" height="6.62"/>
      <rect class="cls-8" x="192.42" y="13.85" width="9.96" height="20.36"/>
      <rect class="cls-8" x="144.7" y="4.1" width="48.41" height="7.84"/>
      <rect class="cls-8" x="167.44" y="15.35" width="15.19" height="8.68"/>
      <rect class="cls-11" x="63.67" y="115.03" width="5.47" height="3.24"/>
      <ellipse class="cls-15" cx="34.61" cy="118.82" rx="12.37" ry="12.65"/>
      <rect class="cls-2" x="115.41" y="50.09" width="29.89" height="6.88"/>
      <path class="cls-12" d="M123.42,50.86v.53h-1.4c.15.21.28.42.36.58l-.58.23c-.09-.22-.28-.54-.49-.81h-.4c-.21.31-.45.59-.69.8-.12-.11-.38-.29-.54-.37.16-.12.31-.27.45-.43h-1.17c.11.21.2.42.25.57l-.57.23c-.05-.21-.19-.53-.33-.81h-.19c-.21.33-.43.62-.65.84-.13-.09-.39-.27-.54-.35.44-.4.85-1.02,1.07-1.63l.62.16c-.06.15-.14.31-.21.45h1.73v.51c.28-.33.51-.72.66-1.13l.63.16c-.06.16-.13.31-.21.46h2.21ZM123.2,54.45s0,.17-.01.25c-.09.96-.18,1.4-.36,1.58-.13.14-.28.19-.49.21-.18.01-.52.02-.89,0,0-.18-.09-.44-.18-.6.33.04.64.04.77.04.11,0,.18,0,.25-.06.09-.09.15-.33.21-.86h-1.95v1.79h-.65v-1.53c-.65.62-1.58,1.15-2.44,1.44-.1-.16-.28-.4-.42-.52.82-.23,1.71-.67,2.33-1.18h-1.15l-.06.21-.65-.09c.15-.48.33-1.2.45-1.77h1.96v-.59h-2.27v-.55h5.17v1.7h-2.25v.54h2.65ZM118.48,53.91c-.04.18-.08.36-.13.54h1.55v-.54h-1.42ZM120.54,53.35h1.6v-.59h-1.6v.59Z"/>
      <rect class="cls-12" x="123.76" y="53.11" width="6.46" height=".72"/>
      <path class="cls-12" d="M132.68,54.63c-.11-.23-.33-.64-.53-.99v3.15h-.62v-3.02c-.23.69-.5,1.33-.8,1.75-.07-.18-.21-.44-.32-.59.43-.59.85-1.64,1.07-2.55h-.92v-.61h.97v-1.48h.62v1.48h.82v.61h-.82v.45c.2.25.77,1.11.9,1.31l-.37.49ZM136.18,53.44c-.19.62-.46,1.18-.82,1.68.46.49,1.03.87,1.69,1.11-.15.13-.36.41-.46.58-.65-.27-1.19-.67-1.65-1.18-.49.5-1.09.9-1.85,1.19-.07-.15-.23-.4-.34-.53.74-.26,1.34-.67,1.79-1.16-.35-.48-.62-1.03-.84-1.62l.57-.16c.16.45.39.89.67,1.27.26-.4.45-.84.57-1.31l.67.14ZM134.51,52.3c-.3.59-.74,1.19-1.21,1.6-.1-.13-.31-.32-.45-.42.43-.35.84-.93,1.06-1.43l.6.25ZM136.91,51.9h-3.87v-.61h1.59v-1.01h.66v1.01h1.62v.61ZM135.89,52.03c.44.45.93,1.06,1.14,1.49l-.55.32c-.19-.42-.67-1.06-1.1-1.53l.51-.28Z"/>
      <path class="cls-12" d="M140.79,52.83v.64h2.55v.56h-5.73v-.56h2.5v-.64h-1.47v-.45c-.36.22-.72.43-1.1.6-.08-.14-.25-.39-.38-.53,1.2-.5,2.36-1.39,2.92-2.17h.65c.77.92,1.96,1.69,3.06,2.09-.15.16-.3.38-.4.57-.35-.15-.72-.35-1.08-.57v.46h-1.52ZM138.37,54.49h4.25v2.3h-.67v-.21h-2.93v.21h-.65v-2.31ZM140.11,52.27v-.6h.68v.6h1.36c-.67-.42-1.3-.93-1.71-1.41-.38.47-.96.97-1.63,1.41h1.31ZM139.02,56.02h2.93v-.97h-2.93v.97Z"/>
      <circle class="cls-15" cx="97.84" cy="108.99" r="19.58" transform="translate(-5.88 5.58) rotate(-3.17)"/>
      <path class="cls-15" d="M147.57,54.04c0,9.74-7.72,17.63-17.24,17.63s-17.24-7.89-17.24-17.63,7.72-17.63,17.24-17.63,17.24,7.89,17.24,17.63Z"/>
      <rect class="cls-2" x="7.03" y="116.35" width="55.81" height="5.01"/>
      <path class="cls-12" d="M10.07,118.05h.82v.44h-.82v.12c.2.2.7.78.82.93l-.28.38c-.1-.18-.33-.51-.53-.77v2.06h-.47v-2.04c-.23.54-.52,1.05-.82,1.37-.05-.13-.16-.31-.25-.44.37-.37.73-1.02.95-1.62h-.83v-.44h.94v-.76c-.26.05-.53.08-.78.11-.02-.1-.08-.26-.13-.37.66-.09,1.43-.25,1.88-.42l.31.36c-.24.09-.52.17-.81.22v.85ZM12.97,117.03v3.91h-.48v-.38h-.99v.41h-.46v-3.95h1.93ZM12.49,117.48h-.99v2.63h.99v-2.63Z"/>
      <path class="cls-12" d="M15.27,119.29c-.27.87-.89,1.46-1.61,1.77-.05-.12-.18-.29-.28-.39.53-.19,1.01-.58,1.28-1.07h-1.09v-.42h1.32l.08-.02.3.12ZM17.78,119.17c-.33.25-.74.53-1.09.74.38.34.86.59,1.4.72-.1.1-.24.28-.3.42-.78-.24-1.4-.7-1.83-1.33v.98c0,.25-.05.38-.23.44-.18.07-.46.07-.84.07-.02-.13-.09-.31-.15-.44.28.01.57.01.65.01.09,0,.11-.02.11-.09v-1.82h-1.47v-1.88h1.25c.08-.15.16-.33.2-.46l.56.09c-.08.13-.15.25-.23.37h1.68v1.88h-1.51v.07c.12.25.27.48.46.69.33-.22.72-.52.96-.75l.4.29ZM14.49,117.75h2.5v-.4h-2.5v.4ZM14.49,118.5h2.5v-.4h-2.5v.4Z"/>
      <path class="cls-12" d="M22.45,118.56c-.14.49-.37,1-.74,1.42-.52.58-1.17.9-1.81,1.08l-.39-.46c.74-.15,1.36-.48,1.77-.91.29-.3.47-.68.56-1.01h-2.58c-.12,0-.34,0-.54.02v-.53c.2.02.39.04.54.04h2.59c.14,0,.26-.02.32-.04l.36.22c-.03.06-.07.13-.08.18M19.66,117.02h1.97c.16,0,.37-.01.5-.03v.52c-.13,0-.33-.02-.5-.02h-1.96c-.16,0-.35,0-.49.02v-.52c.13.01.32.03.49.03"/>
      <path class="cls-12" d="M24.09,118.58h2.76c.24,0,.44-.02.57-.03v.63c-.11,0-.34-.03-.57-.03h-2.76c-.28,0-.58,0-.75.03v-.63c.17,0,.48.03.75.03"/>
      <path class="cls-12" d="M28.69,119.97h2.98c.16,0,.34-.01.51-.03v.61c-.17-.02-.36-.02-.51-.02h-2.98c-.19,0-.4,0-.58.02v-.61c.19.01.39.03.58.03M29.08,117.48h2.14c.19,0,.39-.01.53-.03v.58c-.14,0-.36-.01-.53-.01h-2.13c-.18,0-.38,0-.54.01v-.58c.17.01.37.03.54.03"/>
      <path class="cls-12" d="M35.12,119.71c.82-.5,1.45-1.26,1.76-1.91l.31.55c-.36.66-.99,1.35-1.78,1.83-.51.31-1.15.61-1.94.76l-.34-.52c.85-.13,1.5-.41,1.99-.71M34.95,118.09l-.4.41c-.26-.27-.89-.82-1.27-1.07l.37-.4c.35.24,1.01.77,1.3,1.06"/>
      <path class="cls-12" d="M39.65,117.44s-.05.09-.08.13h1.22c.14,0,.28-.02.38-.05l.42.25c-.05.08-.11.21-.14.31-.14.49-.44,1.17-.89,1.72-.47.57-1.08,1.04-2.03,1.4l-.47-.43c.98-.29,1.58-.74,2.03-1.26.38-.43.68-1.07.77-1.49h-1.58c-.32.44-.75.88-1.28,1.24l-.45-.33c.88-.53,1.35-1.23,1.59-1.68.06-.11.15-.31.19-.46l.59.19c-.1.15-.21.34-.26.44M41.61,117.41l-.33.14c-.1-.2-.26-.51-.4-.7l.32-.14c.13.18.31.5.41.69M42.19,117.19l-.33.15c-.11-.22-.27-.51-.42-.7l.32-.14c.14.19.33.51.42.69"/>
      <path class="cls-12" d="M46.09,117.66c-.18.42-.48.99-.83,1.44.52.45,1.14,1.1,1.45,1.49l-.45.4c-.33-.46-.84-1.01-1.34-1.48-.54.58-1.23,1.12-1.95,1.46l-.41-.43c.82-.31,1.58-.92,2.08-1.48.35-.39.68-.94.81-1.34h-1.86c-.2,0-.47.03-.55.03v-.57c.1.01.39.04.55.04h1.88c.19,0,.35-.02.44-.05l.33.24c-.04.05-.11.18-.15.26"/>
      <path class="cls-12" d="M49.47,117.32s-.04.09-.07.13h1.22c.14,0,.28-.01.38-.05l.42.25c-.05.08-.11.21-.14.31-.14.49-.43,1.17-.89,1.72-.47.58-1.08,1.04-2.03,1.4l-.47-.42c.98-.29,1.58-.74,2.03-1.27.37-.43.68-1.07.77-1.49h-1.58c-.32.44-.75.89-1.29,1.24l-.45-.33c.88-.53,1.35-1.23,1.59-1.68.06-.1.15-.31.19-.46l.59.19c-.1.15-.21.35-.26.45"/>
      <path class="cls-12" d="M52.92,117.38h2.77c.16,0,.32,0,.46-.03v.56c-.14-.01-.31-.02-.46-.02h-1.15v2.21h1.43c.16,0,.31-.02.44-.03v.58c-.14-.02-.33-.03-.44-.03h-3.34c-.15,0-.31,0-.47.03v-.58c.15.02.32.03.47.03h1.36v-2.21h-1.07c-.11,0-.32,0-.45.02v-.56c.13.02.33.03.45.03"/>
      <path class="cls-12" d="M61.17,117.6c-.22.37-.7,1.01-1.24,1.4l-.42-.34c.45-.26.89-.76,1.03-1.05h-2.78c-.2,0-.38.02-.6.03v-.56c.19.02.39.04.6.04h2.83c.11,0,.34-.01.42-.03l.32.3c-.05.06-.13.15-.17.21M57.88,121.04l-.47-.38c.15-.05.32-.13.49-.25.73-.47.84-1.1.84-1.95,0-.14,0-.26-.03-.41h.58c0,1.32-.08,2.29-1.41,2.98"/>
      <rect class="cls-2" x="79.81" y="105.75" width="36.14" height="6.99"/>
      <path class="cls-12" d="M86.15,107.39c-.23.59-.57,1.35-1.02,2.02.63.52,1.24,1.07,1.73,1.6l-.57.62c-.51-.59-1.04-1.09-1.63-1.6-.65.79-1.5,1.6-2.72,2.25l-.62-.56c1.21-.57,2.06-1.31,2.76-2.17-.52-.42-1.26-.97-1.96-1.4l.47-.57c.6.38,1.38.92,1.95,1.35.42-.62.68-1.25.89-1.83.06-.16.12-.41.16-.58l.82.29c-.08.14-.2.42-.26.57"/>
      <path class="cls-12" d="M88.51,108.57h4.65c.15,0,.41,0,.6-.04v.73c-.17,0-.41-.01-.6-.01h-1.83c-.03.75-.17,1.38-.44,1.89-.25.48-.79,1.01-1.41,1.33l-.65-.48c.52-.21,1.04-.62,1.31-1.06.3-.47.4-1.04.43-1.67h-2.05c-.21,0-.45,0-.65.02v-.74c.2.02.43.04.65.04M89.39,106.78h2.4c.22,0,.49-.01.71-.04v.73c-.23-.01-.48-.03-.71-.03h-2.39c-.24,0-.5.01-.69.03v-.73c.21.03.45.04.69.04M93.46,107.17l-.47.2c-.14-.28-.37-.71-.56-.98l.45-.19c.18.26.43.7.58.97M94.28,106.86l-.46.21c-.15-.31-.38-.71-.58-.98l.45-.19c.19.27.46.71.59.96"/>
      <path class="cls-12" d="M97.42,109.04c.67-.42,1.35-1.02,1.73-1.48l.55.54c-.35.38-.96.89-1.59,1.31v2.49c0,.23,0,.56.03.68h-.82c.01-.12.03-.45.03-.68v-2.04c-.61.32-1.43.67-2.14.89l-.34-.67c.93-.21,1.98-.69,2.55-1.04"/>
      <path class="cls-12" d="M107.24,107.5c-.3.52-.98,1.42-1.74,1.96l-.59-.48c.62-.36,1.24-1.06,1.45-1.47h-3.89c-.28,0-.53.02-.84.04v-.79c.26.04.55.07.84.07h3.97c.16,0,.48-.02.59-.05l.45.42c-.06.08-.18.21-.24.3M102.64,112.32l-.65-.53c.2-.07.45-.18.68-.35,1.01-.65,1.18-1.55,1.18-2.72,0-.19,0-.36-.04-.57h.81c0,1.85-.11,3.21-1.97,4.17"/>
      <path class="cls-12" d="M110.03,110.39c-.11-.23-.33-.64-.53-.99v3.15h-.62v-3.02c-.22.68-.5,1.33-.8,1.74-.06-.18-.22-.44-.32-.59.43-.59.85-1.64,1.06-2.55h-.9v-.61h.96v-1.48h.62v1.48h.82v.61h-.82v.46c.21.26.77,1.1.9,1.3l-.37.49ZM112.92,110.29c.4.55,1.01,1.13,1.53,1.43-.14.11-.36.35-.46.5-.45-.35-.98-.93-1.38-1.51v1.83h-.65v-1.73c-.43.6-1.02,1.15-1.59,1.48-.11-.16-.3-.4-.45-.52.64-.3,1.33-.88,1.74-1.48h-1.1v-2.42h1.4v-.5h-1.61v-.56h1.61v-.77h.65v.77h1.62v.56h-1.62v.5h1.45v2.42h-1.13ZM111.15,108.85h.81v-.5h-.81v.5ZM111.15,109.81h.81v-.5h-.81v.5ZM112.61,108.85h.84v-.5h-.84v.5ZM113.45,109.31h-.84v.5h.84v-.5Z"/>
      <line class="cls-13" x1="30.96" y1="98.63" x2="30.96" y2="86.41"/>
      <path class="cls-9" d="M31.89,86.45c0-.51-.42-.93-.93-.93s-.93.42-.93.93.41.93.93.93.93-.42.93-.93"/>
      <rect class="cls-9" x="3.47" y="96.46" width="56.47" height="7.3"/>
      <path class="cls-12" d="M10.84,97.88c-.26.67-.64,1.53-1.16,2.29.72.59,1.41,1.22,1.97,1.82l-.64.71c-.58-.67-1.18-1.24-1.85-1.82-.73.89-1.7,1.81-3.08,2.56l-.71-.64c1.37-.65,2.34-1.49,3.13-2.47-.59-.47-1.43-1.1-2.22-1.59l.53-.64c.68.43,1.57,1.05,2.21,1.54.48-.7.77-1.42,1.01-2.08.06-.18.14-.47.18-.66l.93.33c-.09.16-.23.47-.29.65"/>
      <path class="cls-12" d="M16.27,98.63c.84-.52,1.69-1.26,2.24-1.92l.68.64c-.61.62-1.37,1.24-2.17,1.76v3.34c0,.33.02.77.06.95h-1c.02-.18.05-.62.05-.95v-2.8c-.85.46-1.91.93-2.97,1.25l-.39-.8c1.41-.38,2.62-.93,3.51-1.48"/>
      <path class="cls-12" d="M24,101.38c1.3-.8,2.31-2.01,2.8-3.04l.49.88c-.58,1.05-1.57,2.14-2.83,2.92-.81.5-1.84.97-3.09,1.2l-.54-.83c1.35-.2,2.39-.65,3.17-1.13M23.73,98.8l-.64.65c-.42-.43-1.42-1.3-2.01-1.71l.59-.63c.56.38,1.61,1.22,2.06,1.68"/>
      <path class="cls-12" d="M33.77,98.12c-.28.66-.76,1.57-1.32,2.3.83.71,1.8,1.75,2.3,2.36l-.71.63c-.53-.73-1.34-1.61-2.14-2.35-.86.92-1.95,1.78-3.1,2.32l-.65-.69c1.3-.5,2.51-1.47,3.31-2.36.55-.61,1.09-1.5,1.28-2.13h-2.96c-.31,0-.75.04-.88.05v-.91c.16.02.63.06.88.06h2.99c.3,0,.56-.03.7-.08l.52.39c-.06.08-.18.28-.23.42"/>
      <path class="cls-12" d="M36.56,99.15h5.27c.17,0,.48-.02.68-.04v.83c-.19-.01-.47-.02-.68-.02h-2.07c-.03.85-.19,1.56-.5,2.15-.29.55-.9,1.15-1.6,1.5l-.74-.54c.6-.25,1.17-.71,1.49-1.2.35-.54.45-1.18.48-1.91h-2.33c-.24,0-.52,0-.73.02v-.83c.23.02.48.04.73.04M37.55,97.12h3.25c.25,0,.55-.02.81-.06v.83c-.26-.02-.56-.02-.81-.02h-3.25c-.27,0-.56,0-.79.02v-.83c.24.03.52.06.78.06"/>
      <path class="cls-12" d="M44.72,99.58h4.38c.39,0,.7-.03.9-.05v1c-.18,0-.55-.04-.9-.04h-4.38c-.44,0-.93.02-1.2.04v-1c.27.02.77.05,1.2.05"/>
      <path class="cls-12" d="M53.31,99.83l-.47.72c-.42-.31-1.28-.85-1.79-1.13l.45-.69c.51.27,1.43.84,1.81,1.1M54.13,101.72c1.34-.76,2.44-1.85,3.08-2.99l.49.85c-.72,1.1-1.85,2.13-3.15,2.89-.81.47-1.94.85-2.67.99l-.47-.83c.89-.15,1.88-.45,2.72-.92M54.53,98.04l-.48.69c-.41-.3-1.27-.86-1.76-1.14l.46-.7c.5.28,1.4.88,1.79,1.15M56.95,98.29l-.56.24c-.21-.46-.44-.88-.73-1.26l.55-.23c.22.31.56.88.74,1.26M58.05,97.87l-.56.25c-.23-.46-.48-.86-.76-1.24l.56-.23c.22.3.56.85.76,1.22"/>
      <path class="cls-9" d="M34.22,92.46h-6.5v-11.48h6.5v11.48ZM34.91,80.29h-7.87v12.85h7.87v-12.85Z"/>
      <rect class="cls-11" x="163.29" y="53.62" width="21.58" height="9.22"/>
      <rect class="cls-2" x="164.04" y="56.23" width="20.09" height="3.99"/>
      <path class="cls-12" d="M166.87,56.39c.42.64,1.08,1.22,1.7,1.53-.09.1-.18.22-.24.34-.61-.36-1.28-.96-1.63-1.49-.32.51-.93,1.1-1.59,1.5-.05-.09-.15-.22-.23-.3.68-.38,1.32-1.04,1.62-1.58h.37ZM166.94,59.68h1.45v.34h-3.32v-.34h.46v-1.46h.36v1.46h.66v-2.17h.39v.91h1.09v.34h-1.09v.92Z"/>
      <path class="cls-12" d="M170.95,59.19c.35.25.85.46,1.33.55-.08.08-.19.24-.24.34-.51-.14-1.04-.41-1.41-.76v.82h-.36v-.79c-.37.32-.91.59-1.4.73-.06-.1-.16-.24-.24-.32.47-.1.98-.31,1.33-.56h-1.22v-.32h1.53v-.25h-1.16v-.28h1.16v-.24h-1.36v-.3h.81c-.03-.11-.1-.26-.16-.37l.09-.02h-.89v-.32h.58c-.06-.16-.18-.38-.29-.55l.32-.11c.12.17.26.42.32.58l-.2.08h.43v-.69h.34v.69h.39v-.69h.35v.69h.43l-.15-.05c.1-.16.22-.42.27-.6l.38.1c-.11.2-.22.4-.33.55h.57v.32h-.76c-.08.14-.15.27-.22.39h.84v.3h-1.39v.24h1.21v.28h-1.21v.25h1.55v.32h-1.23ZM169.94,57.42c.07.12.14.26.17.36l-.11.03h.83c.06-.11.12-.26.17-.39h-1.06Z"/>
      <path class="cls-12" d="M175.52,56.96l-.15.06.22.15c-.03.06-.05.15-.07.24-.09.41-.27,1.06-.59,1.49-.36.48-.85.87-1.56,1.1l-.34-.38c.77-.19,1.21-.54,1.54-.97.27-.36.44-.88.49-1.25h-1.94c-.17,0-.32,0-.42.02v-.46c.11.01.3.03.43.03h1.91c.05,0,.11,0,.18,0-.07-.15-.18-.32-.26-.45l.26-.11c.1.15.23.38.31.54M176.06,56.85l-.27.12c-.09-.17-.21-.4-.32-.54l.27-.11c.09.14.24.39.32.54"/>
      <path class="cls-12" d="M176.94,58.03h2.14c.19,0,.34-.02.44-.02v.5c-.09,0-.27-.02-.44-.02h-2.14c-.22,0-.45,0-.59.02v-.5c.13,0,.37.02.59.02"/>
      <path class="cls-12" d="M182.8,57.29c-.14.33-.37.79-.65,1.16.41.36.88.88,1.12,1.19l-.35.32c-.26-.37-.65-.81-1.04-1.19-.42.46-.95.9-1.52,1.17l-.32-.35c.64-.25,1.23-.74,1.62-1.19.27-.31.53-.75.63-1.07h-1.45c-.15,0-.37.02-.43.02v-.46c.08.01.31.03.43.03h1.46c.14,0,.27-.02.34-.04l.26.19s-.09.14-.11.21"/>
      <path class="cls-10" d="M147.79,104.74h-4.41c-1.53,0-2.77-1.24-2.77-2.78v-4.41c0-1.53,1.24-2.78,2.77-2.78h4.41c1.53,0,2.77,1.24,2.77,2.78v4.41c0,1.53-1.24,2.78-2.77,2.78"/>
      <path class="cls-1" d="M148.18,105h-5.18c-1.46,0-2.65-1.19-2.65-2.65v-5.18c0-1.46,1.19-2.65,2.65-2.65h5.18c1.46,0,2.65,1.19,2.65,2.65v5.18c0,1.46-1.19,2.65-2.65,2.65M143,95.04c-1.17,0-2.13.95-2.13,2.13v5.18c0,1.17.95,2.13,2.13,2.13h5.18c1.17,0,2.13-.95,2.13-2.13v-5.18c0-1.17-.95-2.13-2.13-2.13h-5.18Z"/>
      <line class="cls-14" x1="145.59" y1="116.89" x2="145.59" y2="106.22"/>
      <path class="cls-9" d="M147.28,106.3c0-.94-.76-1.7-1.7-1.7s-1.7.76-1.7,1.7.76,1.7,1.7,1.7,1.7-.76,1.7-1.7"/>
      <rect class="cls-9" x="119.01" y="114.62" width="72.93" height="7.88"/>
      <path class="cls-12" d="M123.95,119c-.31.1-.62.19-.93.28v2.17c0,.38-.08.57-.31.69-.23.11-.58.14-1.12.13-.02-.18-.12-.48-.22-.68.34.02.68.02.77,0,.1,0,.15-.03.15-.15v-1.95c-.35.1-.67.19-.98.28l-.18-.73c.32-.08.72-.18,1.16-.3v-1.61h-1.05v-.69h1.05v-1.56h.72v1.56h.84v.69h-.84v1.42l.84-.23.09.68ZM128.47,116.69v5.51h-.75v-.52h-2.91v.57h-.71v-5.57h1.79v-1.8h.71v1.8h1.87ZM124.82,118.8h1.08v-1.39h-1.08v1.39ZM124.82,120.97h1.08v-1.47h-1.08v1.47ZM126.6,118.8h1.12v-1.39h-1.12v1.39ZM127.72,119.49h-1.12v1.47h1.12v-1.47Z"/>
      <path class="cls-12" d="M130.54,120.58c.35.57,1.01.83,1.9.86.93.04,2.85.02,3.88-.06-.07.17-.19.49-.23.71-.95.04-2.7.06-3.65.03-1.02-.04-1.72-.32-2.21-.94-.32.33-.66.66-1.04,1.01l-.38-.71c.31-.23.68-.53,1.02-.84v-1.95h-.92v-.69h1.61v2.58ZM130.06,116.81c-.2-.39-.69-.97-1.14-1.37l.6-.38c.45.39.96.93,1.18,1.32l-.64.43ZM136.2,119.99h-5.35v-.57h1.38v-.66h-1.13v-.56h1.13v-.52h.71v.52h1.14v-.52h.72v.52h1.16v.56h-1.16v.66h1.41v.57ZM132.6,115.66h-1.63v-.5h2.26v1.44h-1.51v.3c0,.16.04.19.27.19h.76c.18,0,.21-.04.23-.35.12.09.36.17.54.2-.07.52-.24.67-.69.67h-.92c-.65,0-.82-.15-.82-.69v-.81h1.5v-.44ZM133.17,120.24c-.41.39-1.07.77-1.6,1.01-.12-.13-.39-.35-.55-.46.56-.2,1.14-.48,1.49-.78l.66.23ZM132.93,119.42h1.14v-.66h-1.14v.66ZM135.21,115.66h-1.63v-.5h2.28v1.44h-1.51v.3c0,.16.04.19.29.19h.81c.18,0,.22-.05.24-.38.13.09.36.17.54.21-.06.54-.25.68-.7.68h-.98c-.64,0-.83-.15-.83-.7v-.81h1.48v-.44ZM135.37,121.27c-.31-.28-.89-.65-1.42-.93l.53-.32c.59.27,1.26.65,1.64.95l-.76.3Z"/>
      <path class="cls-12" d="M142.32,118.44c.47.52,1.02.93,1.64,1.19-.17.14-.39.42-.5.6-.4-.19-.76-.43-1.09-.72h0c-.11,1.58-.23,2.23-.44,2.47-.16.18-.33.23-.58.26-.22.03-.63.03-1.05,0-.02-.22-.11-.51-.23-.7.39.03.77.03.93.03.15,0,.22,0,.29-.08.13-.12.22-.57.31-1.6h-1.48c-.22,1.14-.77,1.93-2.47,2.39-.07-.19-.27-.49-.43-.64,1.46-.33,1.92-.92,2.11-1.76h-1.29v-.35c-.32.27-.68.51-1.09.71-.1-.18-.32-.46-.48-.6.66-.31,1.2-.73,1.65-1.22h-1.46v-.68h1.98c.16-.25.31-.52.43-.79h-1.9v-.68h1.03c-.12-.31-.35-.73-.58-1.06l.62-.23c.27.35.57.85.68,1.17l-.29.11h.72c.16-.46.28-.93.38-1.43l.78.15c-.1.44-.22.87-.35,1.28h1.34l-.19-.06c.24-.35.54-.87.69-1.25l.74.23c-.22.39-.47.78-.69,1.09h1.28v.68h-1.96c.12.27.27.54.43.79h1.99v.68h-1.47ZM142.06,119.22c-.23-.24-.44-.5-.64-.78h-2.33c-.2.27-.43.54-.68.78h3.65ZM139.91,116.96c-.12.27-.24.53-.39.79h1.48c-.14-.25-.26-.52-.36-.79h-.73Z"/>
      <path class="cls-12" d="M147.98,118.72s0,.23-.03.33c-.14,1.84-.27,2.6-.56,2.89-.18.21-.39.26-.71.29-.26.03-.76.02-1.26,0-.02-.23-.12-.56-.27-.78.51.05,1.03.06,1.23.06.16,0,.27,0,.36-.09.18-.15.3-.72.41-2.01h-1.91l-.08.39-.75-.12c.17-.7.36-1.81.48-2.66h2.3v-1.13h-2.54v-.69h3.27v2.52h-2.38c-.05.33-.11.68-.17,1h2.6ZM150.7,122.27h-.76v-7.29h.76v7.29Z"/>
      <path class="cls-12" d="M155.21,115.24l.86-.1c.03.3.1.6.17.91.56-.07,1.11-.19,1.63-.36l.1.73c-.45.13-1,.24-1.55.31.06.17.1.33.16.48.05.14.1.28.16.43.66-.08,1.19-.22,1.58-.34l.13.76c-.39.1-.86.19-1.39.27.15.31.32.61.5.88.1.14.2.26.33.38l-.4.6c-.45-.1-1.26-.19-1.82-.25l.07-.61c.39.04.87.09,1.12.11-.21-.33-.4-.68-.55-1.01-.98.08-2.3.08-3.53,0l-.04-.75c1.21.12,2.36.12,3.27.05-.05-.12-.1-.24-.14-.35-.07-.21-.13-.4-.19-.57-.77.04-1.74.03-2.75-.06l-.05-.73c.96.1,1.84.14,2.6.1,0-.02-.02-.05-.03-.07-.07-.26-.15-.53-.25-.8M153.73,120.36c0,.64.58.94,1.76.94.76,0,1.39-.06,1.97-.18l-.04.81c-.57.09-1.24.15-1.92.15-1.6,0-2.53-.48-2.55-1.56,0-.48.15-.85.34-1.21l.79.15c-.19.27-.35.56-.35.9"/>
      <path class="cls-12" d="M161.96,118.93c-.27.09-.56.18-.83.27v2.25c0,.37-.07.57-.29.69-.22.11-.53.14-1.05.14-.01-.18-.1-.5-.2-.69.32,0,.62,0,.71,0,.1,0,.14-.02.14-.14v-2.04c-.31.1-.61.18-.88.27l-.17-.72c.29-.07.65-.18,1.05-.29v-1.53h-.93v-.69h.93v-1.56h.69v1.56h.8v.25c.67-.54,1.1-1.23,1.31-1.83l.7.11c-.07.16-.14.33-.22.49h1.18l.1-.02.48.31c-.15.32-.35.69-.56,1.01h1.57v2.62h-.65v-.75h-.65c-.53,0-.65-.13-.65-.63v-.64h-.45c-.06.72-.28,1.19-.94,1.5-.05-.11-.16-.25-.26-.35v.89h-.64v-2.13l-.05.04c-.06-.1-.17-.21-.28-.31v.13h-.8v1.33l.73-.22.1.68ZM164.87,120.29c.36.71,1.02,1.15,2.04,1.34-.17.14-.35.43-.43.62-1.07-.24-1.74-.77-2.15-1.59-.35.78-1.03,1.3-2.42,1.63-.07-.17-.23-.44-.36-.57,1.33-.27,1.91-.72,2.19-1.43h-1.88v-.62h2.05c.04-.21.06-.44.08-.69h.68c-.01.24-.04.47-.07.69h2.19v.62h-1.92ZM163.39,116.06c-.16.24-.34.47-.55.69h1.36c.13-.2.26-.46.37-.69h-1.18ZM162.91,118.41c.45-.2.6-.53.65-1.05h-.65v1.05ZM165.85,117.36h-.74v.64c0,.13.02.15.16.15h.44c.09,0,.11,0,.14-.05v-.73Z"/>
      <path class="cls-12" d="M172.28,118c-.34.3-1.18,1.07-1.42,1.34.07,0,.22,0,.3.04.28.05.45.24.56.56.08.23.18.59.26.82.08.28.26.42.63.42.57,0,1.16-.07,1.55-.16l-.05.85c-.34.06-1.12.12-1.54.12-.7,0-1.1-.16-1.29-.69-.08-.24-.19-.68-.26-.89-.1-.29-.27-.42-.47-.42s-.38.12-.57.31c-.29.29-1.05,1.1-1.55,1.73l-.76-.53c.12-.1.29-.24.47-.42.36-.37,2.31-2.32,3.09-3.11-.6.03-1.79.14-2.27.18-.27.02-.49.05-.67.08l-.07-.89c.18.02.45.03.72.03.43,0,2.28-.11,2.92-.19.14-.02.33-.06.41-.09l.48.53c-.18.13-.36.28-.48.39M172.54,115.61l-.1.75c-.83-.06-2.28-.25-3.25-.42l.13-.73c.88.18,2.43.35,3.23.4"/>
      <path class="cls-12" d="M180.96,118.89c-.39.82-.99,1.46-1.72,1.96.82.33,1.77.56,2.84.67-.16.17-.35.49-.46.71-1.19-.17-2.25-.47-3.14-.94-.94.47-2.04.76-3.18.94-.07-.19-.27-.52-.43-.68,1.06-.13,2.05-.36,2.89-.71-.59-.4-1.08-.9-1.47-1.48l.15-.06h-.35v-.69h4.23l.14-.02.51.31ZM175.74,118.84h-.7v-1.67h1.22c-.1-.28-.28-.67-.46-.96l.65-.19c.22.31.43.73.52,1.01l-.43.14h1.74c-.04-.3-.19-.77-.36-1.14l.67-.14c.18.35.35.81.4,1.11l-.68.17h1.6c.24-.38.49-.9.65-1.3l.78.21c-.21.36-.44.77-.67,1.09h1.26v1.67h-.73v-1.01h-5.45v1.01ZM181.55,115.45c-1.69.34-4.17.53-6.27.6,0-.19-.09-.48-.16-.64,2.07-.08,4.5-.28,5.9-.58l.52.61ZM177.09,119.3c.35.47.83.86,1.41,1.18.55-.32,1-.7,1.34-1.18h-2.75Z"/>
      <path class="cls-12" d="M185.14,115.16c-.23.57-.5,1.16-.81,1.7v5.4h-.76v-4.23c-.22.31-.47.59-.71.83-.08-.18-.3-.58-.45-.77.8-.76,1.55-1.95,1.99-3.17l.74.23ZM189.8,117.38h-.96v3.93c0,.52-.14.73-.48.85-.34.12-.9.14-1.78.13-.04-.21-.18-.55-.29-.75.65.03,1.32.02,1.51.02.19,0,.26-.06.26-.24v-3.93h-3.15v-.75h3.15v-1.67h.77v1.67h.96v.75ZM186.46,120.4c-.22-.5-.72-1.35-1.1-1.97l.65-.31c.39.6.91,1.42,1.15,1.9l-.7.38Z"/>
      <path class="cls-1" d="M145.89,102.12s.03-.02.05-.02c.04,0,.08-.02.11-.05l3.14-3.14c.12-.12.09-.33-.05-.47l-.85-.85c-.12.12-.34.1-.49-.05s-.17-.37-.05-.49l-.85-.84c-.15-.15-.36-.17-.48-.05l-3.14,3.14s-.04.07-.05.11c0,.02,0,.04-.02.05-.01.01-.03.02-.05.02-.04,0-.08.02-.11.05l-1.09,1.09c-.12.12-.1.33.05.48l.85.85c.12-.12.34-.1.49.05.15.15.18.37.05.49l.85.85c.15.15.36.17.48.05l1.09-1.09s.04-.07.05-.11c0-.02,0-.04.02-.05M143.34,99.69c-.07-.05-.07-.13-.02-.17.03-.02.07-.01.1.01.07.05.08.13.02.17-.03.02-.07.01-.1-.01M143.58,99.92c-.07-.05-.07-.13-.02-.17.03-.02.07-.01.1.01.07.05.08.13.02.17-.03.02-.07.01-.1-.01M143.81,100.16c-.07-.05-.07-.13-.02-.17.03-.02.07-.01.1.01.07.05.08.13.02.17-.03.02-.07.01-.1-.01M144.05,100.39c-.07-.05-.07-.13-.02-.17.03-.02.07-.01.1.01.07.05.08.13.02.17-.03.02-.07.01-.1-.01M144.28,100.63c-.07-.04-.07-.13-.02-.17.03-.02.07-.01.1.01.07.05.07.13.02.17-.03.02-.07.01-.1-.01M144.52,100.86c-.07-.04-.08-.13-.02-.17.03-.02.07-.01.1.01.07.04.07.13.02.17-.03.02-.07.01-.1-.01M144.75,101.1c-.07-.05-.07-.13-.02-.17.03-.02.07-.01.1.01.07.04.07.13.02.17-.03.02-.07.01-.1-.01M144.99,101.33c-.07-.05-.07-.13-.02-.17.03-.02.07-.01.1.01.07.05.07.13.02.17-.03.02-.07.01-.1-.01M145.22,101.57c-.07-.05-.07-.13-.02-.17.03-.02.07-.01.1.01.06.05.07.13.02.17-.03.02-.07.01-.1-.01M145.46,101.8c-.07-.05-.07-.13-.02-.17.03-.02.07-.01.1.01.07.05.07.13.02.17-.03.02-.07.01-.1-.01M145.69,102.04c-.07-.05-.07-.13-.02-.17.03-.02.07-.01.1.01.07.05.07.13.02.17-.03.02-.07.01-.1-.01"/>
    </g>
  </g>
</svg>