<?xml version="1.0" encoding="UTF-8"?>
<svg id="_レイヤー_2" data-name="レイヤー 2" xmlns="http://www.w3.org/2000/svg" xmlns:xlink="http://www.w3.org/1999/xlink" viewBox="0 0 398.14 401.08">
  <defs>
    <style>
      .cls-1 {
        fill: url(#_6_lpi_40_);
      }

      .cls-1, .cls-2, .cls-3, .cls-4, .cls-5, .cls-6, .cls-7, .cls-8, .cls-9, .cls-10 {
        stroke-width: 0px;
      }

      .cls-2, .cls-11 {
        fill: none;
      }

      .cls-3 {
        fill: url(#_6_lpi_40_-2);
      }

      .cls-4 {
        fill: #dd90a4;
      }

      .cls-5 {
        fill: #e6aebc;
      }

      .cls-6 {
        fill: #efcad2;
      }

      .cls-7 {
        fill: #d4718f;
      }

      .cls-8 {
        fill: #63bdeb;
      }

      .cls-9 {
        fill: #d06183;
      }

      .cls-10 {
        fill: #fff;
      }

      .cls-11 {
        stroke: #231815;
        stroke-width: 4.8px;
      }
    </style>
    <pattern id="_6_lpi_40_" data-name="6 lpi 40%" x="0" y="0" width="72" height="72" patternTransform="translate(-7967.67 -5584.32) rotate(45) scale(.21)" patternUnits="userSpaceOnUse" viewBox="0 0 72 72">
      <g>
        <rect class="cls-2" width="72" height="72"/>
        <g>
          <line class="cls-11" x1="71.75" y1="66" x2="144.25" y2="66"/>
          <line class="cls-11" x1="71.75" y1="42" x2="144.25" y2="42"/>
          <line class="cls-11" x1="71.75" y1="18" x2="144.25" y2="18"/>
          <line class="cls-11" x1="71.75" y1="54" x2="144.25" y2="54"/>
          <line class="cls-11" x1="71.75" y1="30" x2="144.25" y2="30"/>
          <line class="cls-11" x1="71.75" y1="6" x2="144.25" y2="6"/>
        </g>
        <g>
          <line class="cls-11" x1="-.25" y1="66" x2="72.25" y2="66"/>
          <line class="cls-11" x1="-.25" y1="42" x2="72.25" y2="42"/>
          <line class="cls-11" x1="-.25" y1="18" x2="72.25" y2="18"/>
          <line class="cls-11" x1="-.25" y1="54" x2="72.25" y2="54"/>
          <line class="cls-11" x1="-.25" y1="30" x2="72.25" y2="30"/>
          <line class="cls-11" x1="-.25" y1="6" x2="72.25" y2="6"/>
        </g>
        <g>
          <line class="cls-11" x1="-72.25" y1="66" x2=".25" y2="66"/>
          <line class="cls-11" x1="-72.25" y1="42" x2=".25" y2="42"/>
          <line class="cls-11" x1="-72.25" y1="18" x2=".25" y2="18"/>
          <line class="cls-11" x1="-72.25" y1="54" x2=".25" y2="54"/>
          <line class="cls-11" x1="-72.25" y1="30" x2=".25" y2="30"/>
          <line class="cls-11" x1="-72.25" y1="6" x2=".25" y2="6"/>
        </g>
      </g>
    </pattern>
    <pattern id="_6_lpi_40_-2" data-name="6 lpi 40%" patternTransform="translate(-7970.1 -5575.52) rotate(45) scale(.21)" xlink:href="#_6_lpi_40_"/>
  </defs>
  <g id="_マップ" data-name="マップ">
    <polygon class="cls-6" points="397.98 43.78 0 43.78 0 346.25 305.73 346.25 397.98 286.31 397.98 43.78"/>
    <g>
      <polygon class="cls-5" points="284.97 169.01 398.14 169.01 398.14 50.54 249.02 50.54 161.08 72.29 163.84 81.79 196.51 81.79 203.06 81.79 203.06 88.35 203.06 156.17 238.59 156.17 284.97 156.17 284.97 169.01"/>
      <polygon class="cls-5" points="372.04 179.6 284.97 233.22 284.97 302.47 305.89 302.47 398.14 242.53 398.14 179.6 372.04 179.6"/>
      <polygon class="cls-5" points="120.06 280.03 120.06 256.91 .16 256.91 .16 302.47 232.51 302.47 232.51 287.61 120.06 287.61 120.06 280.03"/>
      <path class="cls-5" d="M159.01,88.35v-.02l-.08.02-4.22-14.48-10.32,2.55c-6.44,1.59-13,2.63-19.61,3.1L.16,88.4v113.5h47.96v-45.72h15.49v-60.15h15.49v60.15h117.41v-67.82h-37.5Z"/>
      <path class="cls-5" d="M224.39,46.3L215.92,0H.16v82.66l123.72-8.81c6.61-.47,13.18-1.51,19.61-3.1l9.62-2.38-2.22-11.8h6.55l2.04,10.23,61.8-15.29,3.12-5.2Z"/>
    </g>
    <polygon class="cls-1" points="284.97 277.52 377.74 220.83 377.74 179.6 390.76 179.6 390.76 227.59 284.97 291.25 284.97 277.52"/>
    <path class="cls-3" d="M.16,88.4l114.14-7.86c13.65-.94,27.19-3.17,40.42-6.67h0s4.3,14.48,4.3,14.48l-41.11,7.67H26.36v99.94h-5.94v8.59h30.54v85.39l69.1,3.05v9.49H.16V88.4Z"/>
    <g>
      <g>
        <g>
          <path class="cls-4" d="M170.36,191.09h-15.18c-.49,0-.71.61-.34.92l17.57,14.76c.24.2.61.03.61-.28v-12.72c0-1.47-1.19-2.67-2.66-2.67Z"/>
          <path class="cls-4" d="M149.84,194.1c-.19-.16-.48-.16-.67,0l-17.27,14.55c-.21.17-.08.51.19.51l34.23-.03c.49,0,.71-.61.34-.92l-16.82-14.11Z"/>
          <path class="cls-4" d="M143.83,191.09h-10.8c-1.47,0-2.67,1.2-2.67,2.67v8.71c0,.44.52.68.86.4l12.95-10.86c.37-.31.15-.92-.34-.92Z"/>
        </g>
        <g>
          <path class="cls-4" d="M159.34,186.76h11.01c1.47,0,2.67-1.2,2.67-2.67v-8.9c0-.44-.52-.68-.86-.4l-13.16,11.05c-.37.31-.15.92.34.92Z"/>
          <path class="cls-4" d="M133.04,186.76h16.94c.29,0,.57-.1.8-.29l17.29-14.51c.37-.31.15-.92-.34-.92h-34.69c-1.47,0-2.67,1.2-2.67,2.67v10.38c0,1.47,1.2,2.67,2.67,2.67Z"/>
        </g>
        <g>
          <path class="cls-4" d="M202.02,191.09h-18.16c-1.47,0-2.67,1.2-2.67,2.67v12.69c0,1.47,1.2,2.67,2.67,2.67h18.16c.27,0,.5-.22.5-.5v-17.04c0-.27-.22-.5-.5-.5Z"/>
          <path class="cls-4" d="M227.63,191.09h-19.86c-.27,0-.5.22-.5.5v17.04c0,.27.22.5.5.5h19.86c1.47,0,2.67-1.2,2.67-2.67v-12.69c0-1.47-1.2-2.67-2.67-2.67Z"/>
        </g>
      </g>
      <path class="cls-4" d="M90.18,249.85c-.58,0-.96-.35-1.13-1.03l-1.32-5.29c-.06-.24-.02-.46.12-.64.11-.15.28-.25.49-.31.08-.02.17-.03.25-.03.36,0,.64.22.73.58l1.26,5.05,2.86-.71c.07-.02.13-.02.2-.02.35,0,.64.24.73.6.11.44-.12.86-.54.96l-3.2.8c-.16.04-.3.06-.44.06Z"/>
      <path class="cls-4" d="M97.54,244.75c-.14,0-.28,0-.43-.02-2.08-.21-2.56-1.33-2.74-2.28-.01-.1-.02-.16-.01-.23.04-.36.32-.64.71-.69.08,0,.17,0,.17,0h.07c.37.04.65.29.71.63.09.52.23.95,1.2,1.05.08,0,.16.01.24.01.36,0,.96-.09,1.02-.7.04-.37-.01-.62-.99-.92l-.67-.21c-1.06-.33-2.12-.88-1.96-2.48.09-.89.79-1.93,2.45-1.93.14,0,.29,0,.44.02,1.84.18,2.34,1.32,2.47,1.99.02.06.03.15.02.25-.04.36-.33.63-.71.67-.04,0-.09,0-.13,0h-.09c-.35-.04-.62-.26-.7-.59-.06-.36-.23-.74-1-.81-.08,0-.15-.01-.23-.01-.52,0-.84.21-.88.56-.03.29-.05.54.86.82l.62.19c1.21.39,2.31.97,2.14,2.61-.13,1.26-1.14,2.08-2.58,2.08Z"/>
      <circle class="cls-4" cx="265.41" cy="197.47" r="9.63"/>
      <rect class="cls-4" x="71.5" y="163.1" width="30.86" height="3.38" rx="1.1" ry="1.1"/>
      <rect class="cls-4" x="107.16" y="163.1" width="52.21" height="3.38" rx="1.1" ry="1.1"/>
      <rect class="cls-4" x="97.86" y="181.02" width="27.2" height="28.14" rx="1.82" ry="1.82"/>
      <path class="cls-4" d="M86.49,207.53l-6.8-25.54c-.15-.57-.67-.97-1.26-.97h-12.52c-.72,0-1.3.58-1.3,1.3v25.54c0,.72.58,1.3,1.3,1.3h19.32c.85,0,1.48-.81,1.26-1.63Z"/>
      <polygon class="cls-4" points="92.07 185.12 88.18 185.12 85.43 187.87 85.43 191.76 88.18 194.51 92.07 194.51 94.82 191.76 94.82 187.87 92.07 185.12"/>
      <g>
        <path class="cls-4" d="M324.06,178.77h-12.53c-.23,0-.41.18-.41.41v22.16c0,.32.34.51.62.35l12.53-7.39c.13-.07.2-.21.2-.35v-14.77c0-.23-.18-.41-.41-.41Z"/>
        <path class="cls-4" d="M306.02,178.77h-4.01c-.23,0-.41.18-.41.41v27.77c0,.32.34.51.62.35l4.01-2.36c.13-.07.2-.21.2-.35v-25.41c0-.23-.18-.41-.41-.41Z"/>
        <path class="cls-4" d="M333.28,178.77h-3.72c-.23,0-.41.18-.41.41v11.53c0,.32.34.51.62.35l3.72-2.2c.13-.07.2-.21.2-.35v-9.33c0-.23-.18-.41-.41-.41Z"/>
        <path class="cls-4" d="M296.3,181.84l-7.06,4.18c-.12.07-.2.21-.2.35v27.99c0,.32.34.51.62.35l7.06-4.16c.13-.07.2-.21.2-.35v-28c0-.32-.35-.51-.62-.35Z"/>
        <path class="cls-4" d="M338.37,179.18v6.08c0,.32.34.51.62.35l10.32-6.08c.36-.21.21-.76-.21-.76h-10.32c-.23,0-.41.18-.41.41Z"/>
      </g>
      <rect class="cls-4" x="193.94" y="231.14" width="36.36" height="5.15"/>
      <polygon class="cls-4" points="139.12 231.14 131.14 225.32 131.14 231.14 131.14 236.29 149.32 236.29 149.32 231.14 139.12 231.14"/>
      <polyline class="cls-4" points="174.18 225.85 142.49 225.85 129.71 216.54 174.18 216.54"/>
      <polygon class="cls-4" points="98.03 227.56 98.03 216.54 123.02 216.54 98.03 227.56"/>
      <polygon class="cls-4" points="87.51 220.6 64.61 220.6 64.61 236.97 89.86 236.97 91.98 234.54 87.51 220.6"/>
    </g>
    <rect class="cls-9" x="11.84" y="256.91" width="108.22" height="36.07"/>
    <polygon class="cls-9" points="130.37 236.29 130.37 277.52 238.59 277.52 238.59 236.29 187.06 236.29 187.06 231.14 150.98 231.14 150.98 236.29 130.37 236.29"/>
    <polygon class="cls-9" points="360.87 179.6 284.97 225.98 284.97 277.52 377.74 220.83 377.74 179.6 360.87 179.6"/>
    <polygon class="cls-9" points="202.52 71.38 202.52 169.01 290.13 169.01 290.13 139.47 284.97 139.47 274.67 129.16 259.21 129.16 259.21 71.38 202.52 71.38"/>
    <rect class="cls-9" x="69.85" y="96.02" width="48.04" height="16.73"/>
    <rect class="cls-9" x="76.45" y="133.19" width="25.9" height="24.11"/>
    <polygon class="cls-9" points="63.61 166.41 63.61 133.19 19.83 133.19 19.83 164.25 19.83 166.41 19.83 175.53 19.83 201.89 57.14 201.89 57.14 175.53 51.84 175.53 51.84 166.41 63.61 166.41"/>
    <rect class="cls-9" x="24.68" y="201.89" width="4.37" height="55.01"/>
    <rect class="cls-7" x="361.14" y="119.72" width="30.23" height="49.3"/>
    <rect class="cls-9" x="238.59" y="287.5" width="16.69" height="14.86" transform="translate(493.88 589.87) rotate(180)"/>
    <rect class="cls-7" x="20.9" y="105.84" width="46.53" height="17.12"/>
    <rect class="cls-7" x="23.53" y="90.6" width="17.14" height="12.47"/>
    <rect class="cls-9" x="43.58" y="90.6" width="23.85" height="12.47"/>
    <rect class="cls-7" x="362.5" y="76.61" width="18.76" height="38.34"/>
    <rect class="cls-7" x="272.63" y="58.27" width="91.16" height="14.77"/>
    <rect class="cls-7" x="315.46" y="79.44" width="28.6" height="16.34"/>
    <rect class="cls-9" x="120.06" y="267.15" width="10.31" height="6.09"/>
    <rect class="cls-7" x="25.62" y="19.07" width="130.73" height="46.81" transform="translate(-3.92 9.68) rotate(-5.96)"/>
    <rect class="cls-7" x="160.03" y="5.57" width="46.81" height="46.81" transform="translate(-2.02 19.22) rotate(-5.96)"/>
    <g>
      <path class="cls-10" d="M22.42,267.53h1.77v.95h-1.77v.25c.43.43,1.52,1.68,1.77,2.01l-.62.84c-.22-.4-.73-1.1-1.16-1.68v4.48h-1.02v-4.42c-.5,1.17-1.12,2.29-1.77,2.98-.11-.29-.35-.68-.54-.95.8-.8,1.6-2.21,2.06-3.51h-1.79v-.95h2.05v-1.64c-.57.1-1.16.17-1.69.23-.04-.22-.18-.56-.29-.79,1.44-.2,3.1-.54,4.08-.92l.68.79c-.52.2-1.12.36-1.76.48v1.85ZM28.73,265.32v8.49h-1.05v-.81h-2.15v.89h-.99v-8.57h4.18ZM27.68,272.02v-5.72h-2.15v5.72h2.15Z"/>
      <path class="cls-10" d="M33.7,270.22c-.58,1.89-1.93,3.17-3.5,3.85-.11-.25-.38-.64-.6-.85,1.14-.42,2.2-1.25,2.78-2.32h-2.37v-.91h2.86l.18-.03.65.26ZM39.16,269.97c-.73.55-1.62,1.16-2.37,1.6.83.74,1.86,1.29,3.05,1.57-.22.21-.52.62-.66.9-1.69-.52-3.04-1.52-3.98-2.89v2.13c0,.55-.11.81-.51.96-.39.14-.99.15-1.83.15-.04-.28-.19-.67-.33-.95.62.03,1.24.03,1.41.02.19,0,.23-.04.23-.2v-3.96h-3.19v-4.08h2.71c.18-.33.34-.72.44-1l1.21.2c-.17.28-.33.55-.5.8h3.64v4.08h-3.29v.14c.25.54.58,1.05.99,1.51.73-.47,1.57-1.12,2.09-1.63l.88.64ZM32,266.89h5.42v-.86h-5.42v.86ZM32,268.51h5.42v-.87h-5.42v.87Z"/>
      <path class="cls-10" d="M28.38,280.64c-.31,1.07-.8,2.18-1.62,3.08-1.13,1.25-2.53,1.95-3.94,2.34l-.86-.99c1.61-.33,2.95-1.04,3.85-1.98.63-.65,1.02-1.47,1.22-2.2h-5.6c-.26,0-.75.01-1.17.04v-1.14c.43.04.85.08,1.17.08h5.63c.3,0,.56-.04.7-.1l.78.48c-.07.12-.15.29-.18.38ZM22.33,277.28h4.28c.35,0,.8-.02,1.08-.05v1.13c-.27-.02-.72-.03-1.09-.03h-4.27c-.35,0-.75.01-1.06.03v-1.13c.29.03.69.05,1.06.05Z"/>
      <path class="cls-10" d="M31.93,280.68h5.98c.53,0,.96-.04,1.23-.07v1.36c-.24-.01-.75-.05-1.23-.05h-5.98c-.61,0-1.27.02-1.64.05v-1.36c.36.02,1.04.07,1.64.07Z"/>
      <path class="cls-10" d="M41.9,283.71h6.47c.35,0,.75-.02,1.1-.07v1.33c-.36-.03-.79-.06-1.1-.06h-6.47c-.41,0-.86.02-1.25.06v-1.33c.41.03.85.07,1.25.07ZM42.76,278.28h4.64c.42,0,.85-.02,1.14-.05v1.25c-.31-.02-.77-.03-1.14-.03h-4.63c-.4,0-.83.01-1.18.03v-1.25c.36.03.8.05,1.17.05Z"/>
      <path class="cls-10" d="M55.87,283.15c1.77-1.09,3.15-2.74,3.82-4.15l.67,1.2c-.79,1.43-2.15,2.93-3.86,3.98-1.11.68-2.51,1.33-4.21,1.64l-.74-1.13c1.84-.28,3.27-.89,4.32-1.54ZM55.5,279.63l-.87.89c-.57-.58-1.94-1.78-2.75-2.33l.8-.86c.77.52,2.2,1.66,2.82,2.3Z"/>
      <path class="cls-10" d="M65.68,278.2c-.06.1-.1.19-.17.29h2.65c.31,0,.62-.04.83-.11l.9.55c-.11.18-.23.45-.31.67-.3,1.06-.95,2.53-1.94,3.74-1.01,1.24-2.34,2.26-4.4,3.05l-1.02-.92c2.12-.63,3.43-1.61,4.41-2.74.81-.93,1.47-2.32,1.67-3.25h-3.44c-.69.95-1.64,1.91-2.78,2.68l-.97-.72c1.91-1.15,2.94-2.67,3.45-3.64.13-.23.32-.67.41-.99l1.28.42c-.22.33-.45.75-.57.97ZM69.94,278.14l-.73.31c-.22-.44-.57-1.1-.87-1.52l.7-.3c.27.4.67,1.08.89,1.51ZM71.21,277.66l-.72.32c-.23-.47-.59-1.1-.9-1.52l.7-.3c.3.41.71,1.1.91,1.5Z"/>
      <path class="cls-10" d="M79.67,278.69c-.39.9-1.03,2.15-1.8,3.14,1.13.97,2.46,2.39,3.15,3.22l-.97.86c-.73-.99-1.83-2.2-2.92-3.21-1.18,1.25-2.66,2.43-4.24,3.17l-.89-.93c1.78-.68,3.43-2,4.52-3.22.75-.84,1.48-2.05,1.75-2.9h-4.04c-.43,0-1.02.05-1.2.07v-1.24c.22.03.86.08,1.2.08h4.08c.41,0,.77-.04.96-.11l.72.53c-.08.11-.24.39-.32.57Z"/>
      <path class="cls-10" d="M86.98,277.94c-.04.09-.1.19-.15.28h2.64c.31,0,.62-.03.83-.11l.9.55c-.11.18-.23.45-.31.67-.3,1.06-.95,2.53-1.94,3.74-1.01,1.25-2.34,2.25-4.4,3.05l-1.02-.91c2.12-.64,3.43-1.61,4.41-2.75.81-.94,1.47-2.32,1.67-3.25h-3.43c-.7.95-1.64,1.92-2.79,2.7l-.97-.73c1.91-1.14,2.94-2.67,3.45-3.64.13-.22.32-.67.41-.99l1.28.42c-.22.33-.45.76-.57.98Z"/>
      <path class="cls-10" d="M94.46,278.09h6.02c.34,0,.69-.02.99-.07v1.21c-.31-.03-.67-.04-.99-.04h-2.5v4.81h3.1c.35,0,.67-.04.96-.08v1.27c-.3-.04-.73-.06-.96-.06h-7.26c-.32,0-.67.01-1.02.06v-1.27c.33.06.7.08,1.02.08h2.96v-4.81h-2.32c-.24,0-.69.01-.98.04v-1.21c.29.04.73.07.98.07Z"/>
      <path class="cls-10" d="M112.37,278.55c-.47.8-1.52,2.2-2.7,3.04l-.91-.74c.97-.56,1.93-1.65,2.24-2.28h-6.03c-.44,0-.83.03-1.3.07v-1.22c.41.06.86.1,1.3.1h6.15c.24,0,.74-.03.91-.08l.69.65c-.1.12-.27.33-.36.46ZM105.23,286.02l-1.01-.83c.32-.11.7-.29,1.06-.54,1.57-1.01,1.83-2.4,1.83-4.22,0-.3-.01-.56-.07-.88h1.25c0,2.87-.17,4.98-3.06,6.47Z"/>
    </g>
    <g>
      <path class="cls-10" d="M154.29,252.48c-.58,1.49-1.44,3.42-2.59,5.11,1.6,1.31,3.15,2.72,4.39,4.07l-1.44,1.58c-1.3-1.49-2.65-2.77-4.14-4.07-1.64,2-3.8,4.05-6.9,5.71l-1.58-1.42c3.06-1.46,5.24-3.33,7-5.51-1.31-1.06-3.19-2.45-4.97-3.55l1.19-1.44c1.51.96,3.51,2.34,4.95,3.44,1.06-1.57,1.73-3.17,2.25-4.65.14-.4.31-1.04.4-1.48l2.09.74c-.2.36-.5,1.06-.65,1.46Z"/>
      <path class="cls-10" d="M160.26,255.48h11.79c.38,0,1.04-.02,1.51-.09v1.86c-.43-.02-1.04-.04-1.51-.04h-4.65c-.07,1.91-.43,3.49-1.12,4.79-.65,1.22-2.02,2.56-3.58,3.37l-1.66-1.22c1.33-.54,2.63-1.58,3.33-2.68.77-1.21,1.01-2.63,1.08-4.25h-5.2c-.54,0-1.13.02-1.64.05v-1.87c.5.05,1.08.09,1.64.09ZM162.5,250.95h6.09c.56,0,1.24-.04,1.8-.11v1.85c-.58-.04-1.22-.07-1.8-.07h-6.07c-.61,0-1.28.04-1.76.07v-1.85c.54.07,1.15.11,1.75.11ZM172.83,251.94l-1.19.5c-.36-.72-.94-1.8-1.42-2.49l1.15-.49c.45.65,1.1,1.76,1.46,2.47ZM174.9,251.14l-1.17.52c-.38-.77-.97-1.8-1.48-2.48l1.15-.49c.49.68,1.17,1.8,1.49,2.45Z"/>
      <path class="cls-10" d="M182.86,256.67c1.71-1.06,3.44-2.59,4.38-3.75l1.4,1.37c-.9.95-2.45,2.25-4.05,3.31v6.32c0,.58.02,1.42.09,1.73h-2.09c.04-.31.07-1.15.07-1.73v-5.19c-1.55.81-3.62,1.69-5.42,2.27l-.86-1.69c2.36-.54,5.02-1.76,6.48-2.65Z"/>
      <path class="cls-10" d="M207.77,252.77c-.77,1.31-2.48,3.6-4.41,4.97l-1.5-1.21c1.58-.92,3.15-2.7,3.67-3.73h-9.87c-.72,0-1.35.05-2.12.11v-2c.67.09,1.4.16,2.12.16h10.06c.4,0,1.21-.05,1.5-.13l1.13,1.06c-.16.2-.45.54-.59.76ZM196.08,264.99l-1.66-1.35c.52-.18,1.15-.47,1.73-.88,2.57-1.66,2.99-3.92,2.99-6.91,0-.49-.02-.92-.11-1.44h2.05c0,4.7-.27,8.16-5.01,10.59Z"/>
      <path class="cls-10" d="M214.82,260.09c-.27-.59-.83-1.62-1.35-2.5v7.99h-1.57v-7.67c-.56,1.73-1.28,3.37-2.03,4.43-.16-.47-.56-1.12-.81-1.49,1.1-1.49,2.16-4.16,2.7-6.46h-2.29v-1.55h2.43v-3.76h1.57v3.76h2.07v1.55h-2.07v1.17c.52.67,1.95,2.79,2.29,3.29l-.94,1.24ZM222.17,259.86c1.01,1.4,2.57,2.86,3.87,3.64-.36.29-.9.88-1.17,1.28-1.13-.88-2.48-2.36-3.49-3.83v4.65h-1.66v-4.39c-1.1,1.53-2.59,2.92-4.03,3.75-.27-.41-.76-1.01-1.13-1.31,1.62-.76,3.37-2.23,4.41-3.76h-2.79v-6.14h3.55v-1.26h-4.09v-1.42h4.09v-1.96h1.66v1.96h4.12v1.42h-4.12v1.26h3.67v6.14h-2.88ZM217.67,256.2h2.05v-1.28h-2.05v1.28ZM217.67,258.63h2.05v-1.28h-2.05v1.28ZM221.38,254.93v1.28h2.12v-1.28h-2.12ZM223.5,257.36h-2.12v1.28h2.12v-1.28Z"/>
    </g>
    <g>
      <path class="cls-10" d="M305.03,223.68h1.93v1.03h-1.93v.28c.47.47,1.65,1.83,1.93,2.2l-.67.91c-.24-.43-.79-1.2-1.26-1.83v4.88h-1.12v-4.82c-.54,1.27-1.22,2.49-1.93,3.25-.12-.31-.38-.74-.59-1.03.88-.88,1.74-2.41,2.24-3.83h-1.96v-1.03h2.23v-1.79c-.62.11-1.26.18-1.85.25-.05-.24-.19-.61-.31-.86,1.57-.22,3.38-.59,4.45-1.01l.74.86c-.56.22-1.22.4-1.92.53v2.02ZM311.9,221.27v9.26h-1.14v-.89h-2.34v.97h-1.08v-9.34h4.56ZM310.76,228.57v-6.24h-2.34v6.24h2.34Z"/>
      <path class="cls-10" d="M317.33,226.62c-.64,2.06-2.1,3.45-3.81,4.2-.12-.28-.42-.7-.66-.92,1.25-.46,2.4-1.37,3.03-2.53h-2.58v-1h3.12l.19-.04.71.29ZM323.29,226.34c-.79.6-1.76,1.26-2.58,1.74.9.8,2.03,1.4,3.32,1.71-.24.23-.56.67-.72.98-1.85-.56-3.31-1.66-4.34-3.15v2.33c0,.6-.12.89-.55,1.04-.42.16-1.08.17-1.99.17-.05-.3-.2-.73-.36-1.03.67.04,1.35.04,1.54.02.2,0,.25-.05.25-.22v-4.32h-3.48v-4.45h2.95c.19-.36.37-.78.48-1.09l1.32.22c-.18.3-.36.6-.54.88h3.97v4.45h-3.59v.16c.28.59.64,1.14,1.08,1.64.79-.52,1.71-1.22,2.28-1.77l.96.7ZM315.48,222.98h5.91v-.94h-5.91v.94ZM315.48,224.75h5.91v-.95h-5.91v.95Z"/>
      <path class="cls-10" d="M334.84,220.68v10.45h-1.16v-.54h-7.66v.54h-1.12v-10.45h9.94ZM333.67,229.52v-7.77h-7.66v7.77h7.66ZM333.04,222.78c-.58,1.45-1.36,2.71-2.3,3.77.91.52,1.74,1.07,2.29,1.55l-.68.88c-.55-.5-1.4-1.09-2.35-1.66-.86.8-1.85,1.48-2.93,2-.14-.23-.5-.68-.73-.9,1-.43,1.9-.98,2.69-1.66-.75-.41-1.52-.78-2.23-1.07l.61-.76c.76.3,1.58.68,2.38,1.09.95-.98,1.68-2.17,2.2-3.53l1.07.28ZM327.59,224.93c-.16-.56-.59-1.43-1.01-2.08l.83-.35c.44.62.92,1.45,1.08,2.01l-.9.41ZM329.61,224.65c-.08-.59-.43-1.5-.8-2.2l.88-.3c.4.67.77,1.57.88,2.16l-.95.34Z"/>
      <path class="cls-10" d="M346.56,226.14v.8h-10.63v-.8h4.7v-.58h-3.87v-.72h3.87v-.55h-3.59v-.71h3.59v-.59h-4.69v-.8h4.69v-.58h-3.44v-.68h3.44v-.82h1.13v.82h3.37v1.26h1.42v.8h-1.42v1.29h-3.37v.55h3.96v.72h-3.96v.58h4.8ZM337.44,227.43h7.75v3.74h-1.13v-.35h-5.53v.36h-1.09v-3.75ZM338.54,228.15v.6h5.53v-.6h-5.53ZM344.06,230.08v-.64h-5.53v.64h5.53ZM341.76,222.19h2.27v-.58h-2.27v.58ZM341.76,223.58h2.27v-.59h-2.27v.59Z"/>
      <path class="cls-10" d="M353.86,226.42v.9h3.9v3.75h-1.03v-.5h-2.87v.58h-1.01v-7.63h-.71v-1.28l-.7.78c-.31-.53-.96-1.34-1.58-1.91-.4.68-.95,1.47-1.68,2.22h1.27v-1.07h.95v1.07h1.28v3.98h-2.79v2c.52-.12,1.06-.25,1.61-.38-.18-.34-.38-.65-.58-.94l.88-.4c.61.85,1.22,1.97,1.45,2.72l-.96.44c-.07-.29-.2-.64-.37-1.01-1.21.35-2.47.7-3.47.97l-.32-1.03c.24-.05.49-.11.78-.17v-5.94c-.1.1-.2.18-.31.28-.14-.24-.48-.58-.71-.72,1.12-.89,1.88-2.05,2.29-3h1.04c.7.58,1.5,1.4,1.92,2v-.73h2.34v-1.28h1.08v1.28h2.47v2.1h-.78v2.9h-3.39ZM348.89,224.15v.78h1.8v-.78h-1.8ZM350.69,226.48v-.8h-1.8v.8h1.8ZM353.14,222.33v1.03h3.85v-1.03h-3.85ZM356.23,224.26h-2.37v1.26h2.37v-1.26ZM353.86,228.25v1.38h2.87v-1.38h-2.87Z"/>
    </g>
    <g>
      <path class="cls-10" d="M229.26,147.5v1.33h-3.56c.38.52.72,1.06.9,1.48l-1.46.58c-.22-.56-.72-1.37-1.24-2.05h-1.03c-.54.79-1.13,1.49-1.75,2.03-.31-.27-.97-.74-1.37-.94.4-.31.79-.68,1.13-1.1h-2.97c.29.52.52,1.06.63,1.46l-1.44.59c-.13-.54-.49-1.35-.85-2.05h-.49c-.52.83-1.1,1.58-1.66,2.14-.32-.23-.99-.68-1.37-.9,1.12-1.01,2.14-2.59,2.72-4.14l1.58.41c-.16.38-.34.77-.52,1.15h4.39v1.3c.72-.83,1.3-1.84,1.67-2.86l1.6.4c-.16.4-.34.79-.54,1.17h5.6ZM228.7,156.59s-.02.43-.04.65c-.22,2.45-.45,3.55-.9,4.02-.34.36-.72.49-1.24.52-.47.04-1.33.05-2.25,0-.02-.47-.22-1.12-.47-1.53.83.09,1.62.11,1.94.09.29,0,.47-.02.63-.14.23-.23.4-.85.54-2.18h-4.95v4.54h-1.64v-3.89c-1.66,1.58-4.01,2.92-6.19,3.65-.25-.4-.72-1.01-1.08-1.31,2.07-.58,4.34-1.69,5.91-2.99h-2.92l-.16.54-1.66-.23c.38-1.21.85-3.04,1.13-4.5h4.97v-1.49h-5.76v-1.4h13.11v4.3h-5.71v1.37h6.73ZM216.72,155.23c-.11.45-.22.92-.32,1.37h3.92v-1.37h-3.6ZM221.96,153.82h4.05v-1.49h-4.05v1.49Z"/>
      <path class="cls-10" d="M246.5,153.21v1.84h-16.38v-1.84h16.38Z"/>
      <path class="cls-10" d="M252.72,157.06c-.27-.59-.83-1.62-1.35-2.5v7.99h-1.57v-7.67c-.58,1.75-1.28,3.37-2.04,4.43-.16-.47-.54-1.12-.81-1.49,1.1-1.49,2.16-4.16,2.7-6.46h-2.32v-1.55h2.47v-3.76h1.57v3.76h2.07v1.55h-2.07v1.15c.5.65,1.96,2.81,2.29,3.31l-.94,1.24ZM261.6,154.06c-.49,1.57-1.17,3.01-2.09,4.27,1.17,1.24,2.61,2.21,4.29,2.81-.38.32-.92,1.03-1.17,1.48-1.64-.68-3.02-1.71-4.2-2.99-1.24,1.26-2.77,2.29-4.7,3.01-.18-.38-.59-1.01-.86-1.33,1.89-.67,3.4-1.69,4.56-2.94-.88-1.22-1.58-2.61-2.12-4.12l1.44-.41c.41,1.15.99,2.25,1.71,3.22.67-1.01,1.15-2.14,1.46-3.33l1.69.34ZM257.37,151.16c-.76,1.5-1.89,3.03-3.08,4.05-.25-.32-.79-.81-1.13-1.06,1.08-.9,2.12-2.36,2.7-3.62l1.51.63ZM263.46,150.15h-9.83v-1.55h4.03v-2.56h1.67v2.56h4.12v1.55ZM260.86,150.47c1.12,1.13,2.36,2.7,2.9,3.78l-1.4.81c-.49-1.06-1.69-2.68-2.79-3.87l1.3-.72Z"/>
      <path class="cls-10" d="M273.3,152.49v1.62h6.48v1.42h-14.55v-1.42h6.34v-1.62h-3.73v-1.13c-.9.56-1.84,1.08-2.79,1.51-.2-.36-.63-.99-.97-1.33,3.04-1.26,6-3.53,7.42-5.51h1.64c1.96,2.32,4.99,4.3,7.78,5.31-.38.4-.77.97-1.03,1.44-.88-.38-1.82-.88-2.74-1.44v1.15h-3.85ZM267.16,156.72h10.79v5.83h-1.71v-.52h-7.44v.54h-1.64v-5.85ZM271.57,151.08v-1.53h1.73v1.53h3.44c-1.71-1.08-3.29-2.36-4.34-3.58-.95,1.19-2.43,2.47-4.14,3.58h3.31ZM268.8,158.12v2.47h7.44v-2.47h-7.44Z"/>
    </g>
    <g>
      <path class="cls-10" d="M40.76,152.76c-.94.66-2.11,1.33-3.15,1.86,1.08.56,2.4.92,3.92,1.12-.3.27-.66.84-.84,1.21-3.22-.55-5.5-1.92-6.81-4.29h-2.06v2.61c1.12-.1,2.35-.21,3.56-.33l.02,1.25c-2.28.24-4.68.46-6.38.62l-.19-1.29c.48-.03,1.02-.08,1.62-.12v-7.6c-.6.34-1.23.67-1.84.94-.15-.31-.52-.82-.81-1.14,2.5-1.04,4.96-2.83,6.15-4.44h1.4c1.63,1.86,4.14,3.46,6.43,4.27-.3.36-.65.86-.87,1.25-.58-.25-1.2-.57-1.81-.92v4.65c.24-.17.45-.33.65-.48l1.04.83ZM38.25,147.26c-1.4-.87-2.7-1.9-3.56-2.88-.78.95-2.01,1.98-3.4,2.88h2.71v-1.35h1.43v1.35h2.82ZM31.82,149.41h5.85v-1.04h-5.85v1.04ZM31.82,151.57h5.85v-1.11h-5.85v1.11ZM35.28,152.67c.34.48.76.9,1.24,1.27.71-.36,1.48-.83,2.17-1.27h-3.42Z"/>
      <path class="cls-10" d="M55.55,155.34v1.21h-13.03v-1.21h5.76v-1.52h-4.44v-1.21h4.44v-1.26h-3.38v-3.62h8.28v3.62h-3.49v1.26h4.72v1.21h-4.72v1.52h5.86ZM43.85,148.85h-1.27v-3.36h2.43c-.27-.53-.69-1.19-1.09-1.68l1.25-.5c.51.58,1.05,1.38,1.29,1.92l-.55.25h2.38v-2.33h1.41v2.33h2.56l-.71-.25c.44-.54.98-1.38,1.29-1.98l1.45.46c-.46.66-.97,1.31-1.42,1.77h2.62v3.36h-1.33v-2.14h-10.3v2.14ZM46.19,150.25h5.61v-1.42h-5.61v1.42Z"/>
    </g>
    <g>
      <polygon class="cls-8" points="229.45 394.56 233.64 395.31 272.48 171.94 268.29 171.18 229.45 394.56"/>
      <circle class="cls-8" cx="270.14" cy="172.87" r="7.09"/>
    </g>
    <rect class="cls-8" x="101.27" y="360.72" width="213.48" height="40.36" rx="6.42" ry="6.42"/>
    <g>
      <path class="cls-10" d="M139.34,374.09v1.33h-3.56c.38.52.72,1.06.9,1.48l-1.46.58c-.22-.56-.72-1.37-1.24-2.05h-1.03c-.54.79-1.13,1.49-1.75,2.03-.31-.27-.97-.74-1.37-.94.4-.31.79-.68,1.13-1.1h-2.97c.29.52.52,1.06.63,1.46l-1.44.59c-.13-.54-.49-1.35-.85-2.05h-.49c-.52.83-1.1,1.58-1.66,2.14-.32-.23-.99-.68-1.37-.9,1.12-1.01,2.14-2.59,2.72-4.14l1.58.41c-.16.38-.34.77-.52,1.15h4.39v1.3c.72-.83,1.3-1.84,1.67-2.86l1.6.4c-.16.4-.34.79-.54,1.17h5.6ZM138.78,383.19s-.02.43-.04.65c-.22,2.45-.45,3.55-.9,4.02-.34.36-.72.49-1.24.52-.47.04-1.33.05-2.25,0-.02-.47-.22-1.12-.47-1.53.83.09,1.62.11,1.94.09.29,0,.47-.02.63-.14.23-.23.4-.85.54-2.18h-4.95v4.54h-1.64v-3.89c-1.66,1.58-4.02,2.92-6.19,3.65-.25-.4-.72-1.01-1.08-1.31,2.07-.58,4.34-1.69,5.91-2.99h-2.92l-.16.54-1.66-.23c.38-1.21.85-3.04,1.13-4.5h4.97v-1.49h-5.76v-1.4h13.11v4.3h-5.71v1.37h6.73ZM126.81,381.82c-.11.45-.22.92-.32,1.37h3.92v-1.37h-3.6ZM132.05,380.41h4.05v-1.49h-4.05v1.49Z"/>
      <path class="cls-10" d="M156.58,379.8v1.84h-16.38v-1.84h16.38Z"/>
      <path class="cls-10" d="M162.81,383.66c-.27-.59-.83-1.62-1.35-2.5v7.99h-1.57v-7.67c-.58,1.75-1.28,3.37-2.03,4.43-.16-.47-.54-1.12-.81-1.49,1.1-1.49,2.16-4.16,2.7-6.46h-2.32v-1.55h2.47v-3.76h1.57v3.76h2.07v1.55h-2.07v1.15c.5.65,1.96,2.81,2.29,3.31l-.94,1.24ZM171.69,380.65c-.49,1.57-1.17,3.01-2.09,4.27,1.17,1.24,2.61,2.21,4.29,2.81-.38.32-.92,1.03-1.17,1.48-1.64-.68-3.02-1.71-4.2-2.99-1.24,1.26-2.77,2.29-4.7,3.01-.18-.38-.59-1.01-.86-1.33,1.89-.67,3.4-1.69,4.56-2.94-.88-1.22-1.58-2.61-2.12-4.12l1.44-.41c.41,1.15.99,2.25,1.71,3.22.67-1.01,1.15-2.14,1.46-3.33l1.69.34ZM167.45,377.75c-.76,1.5-1.89,3.03-3.08,4.05-.25-.32-.79-.81-1.13-1.06,1.08-.9,2.12-2.36,2.7-3.62l1.51.63ZM173.54,376.74h-9.83v-1.55h4.03v-2.56h1.67v2.56h4.12v1.55ZM170.95,377.07c1.12,1.13,2.36,2.7,2.9,3.78l-1.4.81c-.49-1.06-1.69-2.68-2.79-3.87l1.3-.72Z"/>
      <path class="cls-10" d="M183.38,379.08v1.62h6.48v1.42h-14.55v-1.42h6.34v-1.62h-3.73v-1.13c-.9.56-1.84,1.08-2.79,1.51-.2-.36-.63-.99-.97-1.33,3.04-1.26,6-3.53,7.42-5.51h1.64c1.96,2.32,4.99,4.3,7.78,5.31-.38.4-.77.97-1.03,1.44-.88-.38-1.82-.88-2.74-1.44v1.15h-3.85ZM177.24,383.31h10.79v5.83h-1.71v-.52h-7.44v.54h-1.64v-5.85ZM181.66,377.68v-1.53h1.73v1.53h3.44c-1.71-1.08-3.29-2.36-4.34-3.58-.95,1.19-2.43,2.47-4.14,3.58h3.31ZM178.88,384.72v2.47h7.44v-2.47h-7.44Z"/>
      <path class="cls-10" d="M207.61,384.27h-7.09v3.01c0,.92-.23,1.39-.97,1.64-.74.23-1.8.25-3.37.25-.13-.47-.45-1.15-.7-1.62,1.26.05,2.52.05,2.88.04s.45-.09.45-.36v-2.95h-7.02v-1.55h7.02v-1.24h.85c.7-.38,1.42-.86,2.04-1.35h-6.84v-1.46h8.44l.36-.09,1.08.81c-1.08,1.15-2.67,2.3-4.21,3.1v.23h7.09v1.55ZM193.66,379.68h-1.57v-4.12h2.59c-.32-.65-.88-1.46-1.4-2.07l1.44-.65c.65.72,1.37,1.73,1.67,2.41l-.65.31h3.33c-.25-.72-.77-1.71-1.26-2.47l1.46-.54c.61.81,1.22,1.94,1.46,2.67l-.88.34h3.04c.63-.83,1.33-1.96,1.75-2.81l1.76.56c-.52.77-1.12,1.57-1.67,2.25h2.61v4.12h-1.66v-2.65h-12.03v2.65Z"/>
      <path class="cls-10" d="M208.53,379.44h9.22v1.53h-9.22v-1.53ZM217.51,375.97h-8.55v-1.46h3.46v-1.78h1.62v1.78h3.47v1.46ZM209.66,382.36h7.18v6.73h-1.64v-.9h-4v.97h-1.55v-6.81ZM210.74,379.33c-.07-.76-.36-1.93-.7-2.79l1.39-.31c.4.85.68,2.02.79,2.75l-1.48.34ZM211.21,383.83v2.9h4v-2.9h-4ZM214.11,379.03c.32-.77.7-2.03.9-2.88l1.58.36c-.4,1.01-.79,2.12-1.15,2.86l-1.33-.34ZM225.07,374.38c-.7,1.71-1.57,3.78-2.34,5.35,1.66,1.64,2.05,3.04,2.05,4.27s-.27,2.05-.92,2.48c-.34.23-.74.36-1.21.43-.41.05-.97.04-1.48.04-.02-.49-.18-1.19-.45-1.66.47.04.9.05,1.22.04.29-.02.52-.07.72-.2.36-.22.49-.68.49-1.33,0-1.04-.47-2.36-2.12-3.85.65-1.41,1.35-3.3,1.85-4.7h-2.86v13.92h-1.64v-15.49h5.17l.27-.07,1.24.77Z"/>
      <path class="cls-10" d="M231.35,381.91c-.58.18-1.17.36-1.75.54v4.75c0,.88-.18,1.35-.68,1.62-.52.27-1.3.32-2.49.32-.05-.43-.27-1.15-.49-1.62.76.02,1.5.02,1.73.02s.32-.09.32-.34v-4.27l-2.25.65-.36-1.64c.72-.16,1.62-.4,2.61-.67v-3.6h-2.29v-1.55h2.29v-3.48h1.6v3.48h1.66v1.55h-1.66v3.17l1.55-.43.2,1.49ZM241.78,380.61s-.02.47-.04.68c-.29,4.79-.56,6.57-1.13,7.2-.34.41-.76.56-1.28.61-.5.05-1.39.05-2.27,0-.02-.41-.18-1.03-.43-1.4.86.07,1.66.09,2,.09.31,0,.47-.04.65-.23.36-.38.63-1.87.86-5.55h-6.28c-.13.18-.27.36-.4.54h.43v1.19c1.12-.31,2.27-.7,2.99-1.08l.99,1.04c-1.12.5-2.63.92-3.98,1.22v.76c0,.43.09.5.72.5h2.03c.45,0,.54-.14.61-1.15.29.22.88.41,1.3.5-.18,1.57-.59,1.96-1.75,1.96h-2.38c-1.62,0-1.96-.4-1.96-1.8v-2.02c-.32.34-.68.65-1.03.92-.25-.29-.85-.88-1.21-1.13,1.39-.95,2.59-2.43,3.35-4.09h-1.3v-6.16h8.62v6.16h-5.62c-.16.41-.36.83-.58,1.22h7.06ZM233.8,375.71h5.51v-1.26h-5.51v1.26ZM233.8,378.18h5.51v-1.31h-5.51v1.31Z"/>
      <path class="cls-10" d="M247.7,381.87c-.85,2.18-2.23,4.3-3.57,5.67-.36-.29-1.12-.77-1.55-1.01,1.39-1.22,2.65-3.17,3.37-5.13l1.75.47ZM258.86,378.2v1.66h-6.95v7.26c0,.99-.23,1.49-.95,1.75-.72.27-1.82.31-3.39.31-.09-.5-.36-1.28-.59-1.76,1.12.04,2.34.05,2.67.04.34-.02.45-.09.45-.36v-7.22h-7.02v-1.66h15.79ZM257.24,375.55h-12.57v-1.66h12.57v1.66ZM255.69,381.39c1.24,1.69,2.61,3.91,3.12,5.44l-1.71.76c-.43-1.49-1.73-3.8-2.97-5.53l1.57-.67Z"/>
      <path class="cls-10" d="M265.57,383.69c-.29-.61-.88-1.62-1.44-2.49v7.94h-1.57v-7.8c-.59,1.8-1.35,3.47-2.14,4.57-.18-.47-.58-1.13-.83-1.51,1.13-1.49,2.25-4.14,2.79-6.46h-2.36v-1.55h2.54v-3.76h1.57v3.76h2.2v1.55h-2.2v1.28c.52.59,2.09,2.67,2.43,3.15l-.99,1.31ZM275.87,378.54c-.5,2.83-1.44,5.11-2.74,6.9.94,1.01,2.05,1.84,3.37,2.38-.36.31-.88.97-1.12,1.39-1.28-.61-2.38-1.46-3.29-2.48-.97,1.01-2.07,1.82-3.28,2.43-.22-.38-.67-1.03-1.01-1.31,1.21-.54,2.3-1.35,3.28-2.41-.99-1.44-1.75-3.13-2.3-5.04-.13,2.86-.65,6.36-2.48,8.75-.27-.29-.95-.83-1.33-1.01,2.03-2.7,2.23-6.57,2.23-9.4v-5.01h8.84v1.55h-7.22v3.01h5.74l.27-.05,1.04.32ZM270.13,379.8c.47,1.58,1.12,3.04,1.96,4.3.83-1.22,1.48-2.67,1.89-4.3h-3.85Z"/>
      <path class="cls-10" d="M293.19,375.37v1.53h-16.04v-1.53h4.12c-.31-.65-.94-1.55-1.49-2.21l1.57-.54c.67.72,1.42,1.73,1.73,2.41l-.92.34h5.19c.59-.85,1.22-1.96,1.58-2.81l1.82.56c-.49.77-.99,1.57-1.49,2.25h3.94ZM284.94,387.4c0,.77-.16,1.19-.68,1.42-.54.27-1.35.29-2.48.29-.11-.41-.34-1.06-.56-1.44.79.04,1.58.04,1.8.02.25-.02.32-.09.32-.32v-2.04h-3.57v3.75h-1.57v-10.73h6.73v9.06ZM279.77,379.77v1.48h3.57v-1.48h-3.57ZM283.34,384.05v-1.53h-3.57v1.53h3.57ZM288.4,385.83h-1.55v-7.33h1.55v7.33ZM290.43,378h1.66v9.22c0,.88-.2,1.33-.81,1.58-.59.27-1.53.32-2.88.31-.07-.45-.36-1.17-.59-1.58,1.01.04,1.98.04,2.25.02.29-.02.38-.09.38-.34v-9.2Z"/>
    </g>
  </g>
</svg>